<svg width="24.000000" height="24.000000" viewBox="0 0 24 24" fill="none" xmlns="http://www.w3.org/2000/svg" xmlns:xlink="http://www.w3.org/1999/xlink">
	<desc>
			Created with Pixso.
	</desc>
	<defs>
		<clipPath id="clip52_1446">
			<rect id="Message" rx="0.000000" width="23.000000" height="23.000000" transform="translate(0.500000 0.500000)" fill="white" fill-opacity="0"/>
		</clipPath>
	</defs>
	<rect id="Message" rx="0.000000" width="23.000000" height="23.000000" transform="translate(0.500000 0.500000)" fill="#000000" fill-opacity="0"/>
	<g clip-path="url(#clip52_1446)">
		<path id="Combined-Shape" d="M16.65 2C19.98 2 22.49 4.71 22.49 8.32L22.49 15.18C22.49 17.03 21.84 18.69 20.66 19.88C19.59 20.93 18.22 21.5 16.67 21.5L6.82 21.5C5.27 21.5 3.9 20.93 2.83 19.88C1.65 18.69 0.99 17.03 0.99 15.18L0.99 8.32C0.99 4.71 3.51 2 6.84 2L16.65 2ZM16.65 3.5L6.84 3.5C4.32 3.5 2.49 5.52 2.49 8.32L2.49 15.18C2.49 16.63 2.99 17.91 3.89 18.81C4.67 19.59 5.68 20 6.82 20L16.65 20C16.66 19.99 16.66 20 16.67 20C17.81 20 18.82 19.59 19.6 18.81C20.5 17.91 20.99 16.63 20.99 15.18L20.99 8.32C20.99 5.52 19.17 3.5 16.65 3.5ZM18.23 8.12C18.49 8.44 18.44 8.92 18.12 9.18L13.68 12.79C13.11 13.24 12.44 13.46 11.77 13.46C11.1 13.46 10.44 13.24 9.88 12.8L5.39 9.18C5.07 8.92 5.02 8.45 5.28 8.13C5.54 7.81 6.01 7.75 6.33 8.01L10.81 11.62C11.38 12.07 12.17 12.07 12.74 11.62L17.17 8.01C17.5 7.75 17.97 7.8 18.23 8.12Z" fill="#FFFFFF" fill-opacity="1.000000" fill-rule="evenodd"/>
	</g>
</svg>
