<svg width="72.000000" height="15.427734" viewBox="0 0 72 15.4277" fill="none" xmlns="http://www.w3.org/2000/svg" xmlns:xlink="http://www.w3.org/1999/xlink">
	<desc>
			Created with Pixso.
	</desc>
	<defs>
		<clipPath id="clip43_1821">
			<rect id="Logo" rx="0.000000" width="71.000000" height="14.428572" transform="translate(0.500000 0.500000)" fill="white" fill-opacity="0"/>
		</clipPath>
	</defs>
	<rect id="Logo" rx="0.000000" width="71.000000" height="14.428572" transform="translate(0.500000 0.500000)" fill="#FFFFFF" fill-opacity="0"/>
	<g clip-path="url(#clip43_1821)">
		<path id="Vector" d="M11.52 6.87C11.33 7.07 11.18 7.3 11.09 7.56C10.99 7.83 10.96 8.1 10.99 8.38L10.98 8.37C11.01 8.69 10.96 9.02 10.85 9.32C10.74 9.63 10.56 9.91 10.33 10.14C10.1 10.37 9.82 10.54 9.52 10.65C9.21 10.77 8.89 10.81 8.56 10.78L8.57 10.79C8.19 10.75 7.8 10.84 7.46 11.03C7.12 11.23 6.85 11.52 6.69 11.87C6.52 12.22 6.47 12.62 6.53 13C6.6 13.38 6.79 13.74 7.06 14.01C7.34 14.29 7.69 14.47 8.07 14.54C8.46 14.6 8.85 14.55 9.2 14.39C9.55 14.22 9.85 13.95 10.04 13.61C10.23 13.27 10.32 12.89 10.28 12.5L10.29 12.51C10.26 12.18 10.31 11.86 10.42 11.55C10.53 11.25 10.71 10.97 10.94 10.74C11.17 10.51 11.44 10.33 11.75 10.22C12.05 10.11 12.38 10.07 12.7 10.09L12.69 10.08C13.01 10.11 13.33 10.06 13.62 9.93C13.91 9.81 14.17 9.61 14.36 9.35C14.55 9.1 14.68 8.81 14.73 8.49C14.78 8.18 14.75 7.86 14.64 7.56C14.53 7.26 14.35 6.99 14.11 6.78C13.87 6.57 13.58 6.43 13.27 6.36C12.96 6.29 12.64 6.3 12.33 6.39C12.03 6.48 11.75 6.65 11.53 6.87L11.52 6.87Z" fill="#D1D1D1" fill-opacity="1.000000" fill-rule="nonzero"/>
		<path id="Vector" d="M7.73 9.58L7.72 9.57C8 9.6 8.27 9.56 8.54 9.47C8.8 9.38 9.03 9.23 9.23 9.03C9.42 8.84 9.57 8.6 9.67 8.34C9.76 8.08 9.79 7.8 9.77 7.53L9.78 7.53C9.75 7.21 9.79 6.89 9.9 6.58C10.02 6.27 10.19 6 10.42 5.77C10.65 5.54 10.93 5.36 11.24 5.25C11.54 5.14 11.87 5.09 12.19 5.12L12.18 5.11C12.57 5.15 12.96 5.06 13.3 4.87C13.63 4.68 13.9 4.39 14.07 4.03C14.23 3.68 14.29 3.29 14.22 2.9C14.15 2.52 13.97 2.17 13.69 1.89C13.42 1.62 13.07 1.43 12.68 1.36C12.3 1.3 11.9 1.35 11.55 1.52C11.2 1.68 10.91 1.95 10.71 2.29C10.52 2.63 10.44 3.02 10.47 3.41L10.46 3.4C10.49 3.72 10.45 4.05 10.34 4.35C10.23 4.66 10.05 4.93 9.82 5.16C9.59 5.39 9.31 5.57 9.01 5.68C8.7 5.79 8.37 5.84 8.05 5.81L8.06 5.82C7.78 5.79 7.51 5.83 7.25 5.92C6.99 6.01 6.75 6.16 6.55 6.36C6.36 6.55 6.21 6.79 6.11 7.05C6.02 7.31 5.99 7.59 6.01 7.86L6.01 7.85C6.03 8.18 5.99 8.5 5.88 8.81C5.77 9.11 5.59 9.39 5.36 9.62C5.13 9.85 4.85 10.03 4.55 10.14C4.24 10.25 3.92 10.3 3.59 10.27L3.6 10.28C3.21 10.24 2.82 10.33 2.49 10.52C2.15 10.71 1.88 11 1.71 11.36C1.55 11.71 1.49 12.1 1.56 12.49C1.63 12.87 1.81 13.22 2.09 13.5C2.36 13.77 2.71 13.96 3.1 14.02C3.48 14.09 3.88 14.04 4.23 13.87C4.58 13.71 4.87 13.44 5.07 13.1C5.26 12.76 5.34 12.37 5.31 11.98L5.32 11.99C5.29 11.67 5.33 11.34 5.44 11.04C5.56 10.73 5.73 10.46 5.96 10.23C6.19 10 6.47 9.82 6.78 9.71C7.08 9.59 7.41 9.55 7.73 9.58Z" fill="#D1D1D1" fill-opacity="1.000000" fill-rule="nonzero"/>
		<path id="Vector" d="M4.28 8.55C4.48 8.35 4.63 8.11 4.72 7.85C4.81 7.59 4.85 7.32 4.82 7.04L4.83 7.05C4.8 6.73 4.85 6.4 4.96 6.09C5.07 5.79 5.25 5.51 5.48 5.28C5.71 5.05 5.99 4.87 6.29 4.76C6.6 4.65 6.92 4.61 7.25 4.64L7.24 4.63C7.62 4.66 8.01 4.58 8.35 4.39C8.69 4.19 8.96 3.9 9.12 3.55C9.29 3.2 9.34 2.8 9.28 2.42C9.21 2.03 9.03 1.68 8.75 1.41C8.48 1.13 8.12 0.95 7.74 0.88C7.36 0.81 6.96 0.87 6.61 1.03C6.26 1.2 5.96 1.47 5.77 1.81C5.58 2.14 5.49 2.53 5.53 2.92L5.52 2.91C5.55 3.24 5.5 3.56 5.39 3.87C5.28 4.17 5.1 4.45 4.87 4.68C4.64 4.91 4.37 5.08 4.06 5.2C3.76 5.31 3.43 5.35 3.11 5.33L3.12 5.33C2.8 5.31 2.48 5.36 2.19 5.49C1.9 5.61 1.64 5.81 1.45 6.06C1.26 6.32 1.13 6.61 1.08 6.93C1.03 7.24 1.06 7.56 1.17 7.86C1.28 8.16 1.46 8.42 1.7 8.63C1.94 8.84 2.23 8.99 2.54 9.06C2.85 9.13 3.17 9.12 3.48 9.03C3.78 8.94 4.06 8.77 4.29 8.55L4.28 8.55Z" fill="#D1D1D1" fill-opacity="1.000000" fill-rule="nonzero"/>
		<path id="Vector" d="M20.22 3.42L21.74 3.42L21.74 10.85L20.22 10.85L20.22 3.42Z" fill="#D1D1D1" fill-opacity="1.000000" fill-rule="nonzero"/>
		<path id="Vector" d="M22.61 8.31C22.61 7.77 22.76 7.25 23.06 6.8C23.35 6.36 23.77 6.01 24.27 5.81C24.76 5.6 25.3 5.54 25.83 5.65C26.35 5.75 26.83 6.01 27.21 6.38C27.59 6.76 27.85 7.24 27.95 7.76C28.06 8.29 28 8.83 27.8 9.33C27.6 9.82 27.25 10.24 26.81 10.54C26.36 10.83 25.84 10.99 25.31 10.99C24.95 11 24.6 10.93 24.27 10.8C23.94 10.66 23.64 10.47 23.39 10.22C23.14 9.97 22.94 9.67 22.81 9.34C22.67 9.01 22.61 8.66 22.61 8.31ZM26.48 8.31C26.47 8.08 26.4 7.85 26.26 7.66C26.13 7.48 25.95 7.33 25.73 7.25C25.52 7.16 25.28 7.15 25.06 7.19C24.83 7.24 24.63 7.36 24.47 7.52C24.31 7.69 24.2 7.9 24.15 8.12C24.11 8.35 24.14 8.58 24.23 8.79C24.32 9.01 24.47 9.19 24.66 9.32C24.85 9.44 25.08 9.51 25.31 9.51C25.46 9.51 25.62 9.49 25.77 9.43C25.91 9.37 26.05 9.28 26.16 9.16C26.27 9.05 26.35 8.92 26.41 8.77C26.46 8.62 26.49 8.46 26.48 8.31Z" fill="#D1D1D1" fill-opacity="1.000000" fill-rule="nonzero"/>
		<path id="Vector" d="M34.09 5.76L34.09 10.59C34.09 12.3 32.76 13.03 31.4 13.03C30.93 13.06 30.45 12.97 30.02 12.75C29.6 12.53 29.24 12.2 28.99 11.79L30.29 11.04C30.4 11.25 30.57 11.43 30.77 11.54C30.98 11.66 31.22 11.71 31.45 11.68C31.61 11.7 31.76 11.69 31.9 11.64C32.05 11.6 32.18 11.52 32.29 11.41C32.4 11.31 32.49 11.18 32.54 11.04C32.6 10.9 32.62 10.74 32.61 10.59L32.61 10.13C32.43 10.34 32.2 10.52 31.94 10.63C31.68 10.75 31.4 10.8 31.12 10.79C30.45 10.77 29.81 10.49 29.34 10C28.87 9.52 28.61 8.87 28.61 8.2C28.61 7.53 28.87 6.88 29.34 6.4C29.81 5.92 30.45 5.64 31.12 5.62C31.4 5.6 31.68 5.66 31.94 5.77C32.2 5.89 32.43 6.06 32.61 6.28L32.61 5.76L34.09 5.76ZM32.61 8.2C32.62 7.96 32.55 7.71 32.42 7.5C32.29 7.29 32.1 7.13 31.88 7.03C31.66 6.92 31.41 6.89 31.16 6.93C30.92 6.98 30.7 7.09 30.52 7.26C30.34 7.43 30.22 7.65 30.17 7.89C30.11 8.13 30.14 8.38 30.23 8.61C30.32 8.84 30.48 9.04 30.68 9.17C30.89 9.31 31.13 9.39 31.37 9.39C31.53 9.4 31.7 9.37 31.85 9.32C32 9.26 32.14 9.18 32.25 9.07C32.37 8.96 32.46 8.82 32.52 8.67C32.58 8.52 32.61 8.36 32.61 8.2Z" fill="#D1D1D1" fill-opacity="1.000000" fill-rule="nonzero"/>
		<path id="Vector" d="M34.96 8.31C34.96 7.77 35.11 7.25 35.41 6.8C35.7 6.36 36.12 6.01 36.62 5.81C37.11 5.6 37.65 5.54 38.18 5.65C38.7 5.75 39.18 6.01 39.56 6.38C39.94 6.76 40.2 7.24 40.3 7.76C40.41 8.29 40.35 8.83 40.15 9.33C39.95 9.82 39.6 10.24 39.16 10.54C38.71 10.83 38.19 10.99 37.66 10.99C37.3 11 36.95 10.93 36.62 10.8C36.29 10.66 35.99 10.47 35.74 10.22C35.49 9.97 35.29 9.67 35.16 9.34C35.02 9.01 34.95 8.66 34.96 8.31ZM38.83 8.31C38.82 8.08 38.75 7.85 38.61 7.66C38.48 7.48 38.3 7.33 38.08 7.25C37.87 7.16 37.63 7.15 37.41 7.19C37.18 7.24 36.98 7.36 36.82 7.52C36.66 7.69 36.55 7.9 36.5 8.12C36.46 8.35 36.49 8.58 36.58 8.79C36.67 9.01 36.82 9.19 37.01 9.32C37.2 9.44 37.43 9.51 37.66 9.51C37.81 9.51 37.97 9.49 38.12 9.43C38.26 9.37 38.4 9.28 38.5 9.16C38.62 9.05 38.7 8.92 38.76 8.77C38.81 8.62 38.84 8.46 38.83 8.31Z" fill="#D1D1D1" fill-opacity="1.000000" fill-rule="nonzero"/>
		<path id="Vector" d="M41.07 4.4C41.07 4.21 41.12 4.04 41.22 3.89C41.32 3.74 41.46 3.62 41.63 3.55C41.8 3.48 41.98 3.46 42.16 3.5C42.34 3.53 42.5 3.62 42.63 3.75C42.76 3.88 42.85 4.04 42.88 4.22C42.92 4.4 42.9 4.58 42.83 4.75C42.76 4.91 42.64 5.06 42.49 5.16C42.34 5.26 42.16 5.31 41.98 5.31C41.74 5.31 41.51 5.21 41.34 5.04C41.17 4.87 41.07 4.64 41.07 4.4ZM41.22 5.76L42.75 5.76L42.75 10.85L41.22 10.85L41.22 5.76Z" fill="#D1D1D1" fill-opacity="1.000000" fill-rule="nonzero"/>
		<path id="Vector" d="M49.34 8.31C49.36 8.64 49.31 8.98 49.2 9.3C49.09 9.61 48.91 9.91 48.69 10.16C48.46 10.41 48.19 10.61 47.88 10.75C47.58 10.9 47.25 10.98 46.91 10.99C46.63 11.01 46.34 10.96 46.08 10.85C45.82 10.75 45.58 10.58 45.39 10.37L45.39 12.89L43.87 12.89L43.87 5.76L45.39 5.76L45.39 6.24C45.58 6.03 45.82 5.86 46.08 5.76C46.34 5.65 46.63 5.6 46.91 5.62C47.25 5.63 47.58 5.72 47.88 5.86C48.19 6 48.46 6.2 48.69 6.45C48.91 6.7 49.09 7 49.2 7.31C49.31 7.63 49.36 7.97 49.34 8.31ZM47.82 8.31C47.81 8.07 47.73 7.83 47.6 7.64C47.46 7.44 47.27 7.29 47.05 7.21C46.83 7.12 46.58 7.1 46.35 7.15C46.12 7.2 45.9 7.32 45.74 7.49C45.57 7.66 45.46 7.88 45.41 8.11C45.37 8.34 45.4 8.59 45.49 8.81C45.58 9.03 45.74 9.21 45.94 9.34C46.13 9.48 46.37 9.55 46.61 9.55C46.77 9.55 46.93 9.53 47.08 9.47C47.24 9.41 47.37 9.32 47.49 9.2C47.6 9.08 47.69 8.94 47.75 8.79C47.8 8.63 47.83 8.47 47.82 8.31Z" fill="#D1D1D1" fill-opacity="1.000000" fill-rule="nonzero"/>
		<path id="Vector" d="M54.06 9.32C54.06 10.5 53.04 10.99 51.94 10.99C51.5 11.03 51.05 10.94 50.66 10.72C50.27 10.51 49.95 10.18 49.75 9.78L51.07 9.03C51.13 9.21 51.24 9.37 51.4 9.48C51.56 9.59 51.75 9.64 51.94 9.63C52.3 9.63 52.49 9.52 52.49 9.31C52.49 8.75 49.98 9.05 49.98 7.29C49.98 6.18 50.92 5.62 51.98 5.62C52.38 5.6 52.77 5.7 53.12 5.89C53.47 6.08 53.76 6.36 53.96 6.71L52.66 7.41C52.6 7.28 52.51 7.16 52.39 7.08C52.27 7 52.12 6.96 51.98 6.96C51.71 6.96 51.55 7.06 51.55 7.25C51.55 7.83 54.06 7.44 54.06 9.32Z" fill="#D1D1D1" fill-opacity="1.000000" fill-rule="nonzero"/>
		<path id="Vector" d="M59.64 5.76L59.64 10.85L58.11 10.85L58.11 10.37C57.93 10.58 57.71 10.75 57.46 10.86C57.2 10.97 56.93 11.01 56.65 11C55.63 11 54.75 10.26 54.75 8.89L54.75 5.76L56.28 5.76L56.28 8.66C56.27 8.78 56.28 8.91 56.32 9.02C56.36 9.14 56.42 9.24 56.51 9.33C56.59 9.42 56.69 9.49 56.81 9.53C56.92 9.58 57.04 9.59 57.16 9.59C57.72 9.59 58.11 9.26 58.11 8.54L58.11 5.76L59.64 5.76Z" fill="#D1D1D1" fill-opacity="1.000000" fill-rule="nonzero"/>
		<path id="Vector" d="M68.4 7.73L68.4 10.85L66.87 10.85L66.87 7.86C66.87 7.35 66.62 7.02 66.13 7.02C65.63 7.02 65.34 7.38 65.34 7.98L65.34 10.85L63.81 10.85L63.81 7.86C63.81 7.35 63.57 7.02 63.08 7.02C62.57 7.02 62.29 7.38 62.29 7.98L62.29 10.85L60.76 10.85L60.76 5.76L62.29 5.76L62.29 6.23C62.44 6.02 62.65 5.86 62.89 5.75C63.13 5.64 63.39 5.6 63.65 5.62C63.91 5.6 64.17 5.66 64.41 5.78C64.64 5.9 64.84 6.07 64.98 6.29C65.15 6.06 65.38 5.88 65.64 5.76C65.89 5.65 66.18 5.59 66.46 5.62C67.63 5.62 68.4 6.45 68.4 7.73Z" fill="#D1D1D1" fill-opacity="1.000000" fill-rule="nonzero"/>
		<path id="Vector" d="M69.69 5.73C70.31 5.73 70.82 5.22 70.82 4.59C70.82 3.97 70.31 3.46 69.69 3.46C69.06 3.46 68.55 3.97 68.55 4.59C68.55 5.22 69.06 5.73 69.69 5.73Z" fill="#D1D1D1" fill-opacity="1.000000" fill-rule="nonzero"/>
	</g>
</svg>
