<svg width="72.000000" height="19.091797" viewBox="0 0 72 19.0918" fill="none" xmlns="http://www.w3.org/2000/svg" xmlns:xlink="http://www.w3.org/1999/xlink">
	<desc>
			Created with Pixso.
	</desc>
	<defs>
		<clipPath id="clip43_1782">
			<rect id="Logo" rx="0.000000" width="71.000000" height="18.090910" transform="translate(0.500000 0.500000)" fill="white" fill-opacity="0"/>
		</clipPath>
	</defs>
	<rect id="Logo" rx="0.000000" width="71.000000" height="18.090910" transform="translate(0.500000 0.500000)" fill="#FFFFFF" fill-opacity="0"/>
	<g clip-path="url(#clip43_1782)">
		<path id="Vector" d="M16.64 6.68C16.84 6.68 16.9 6.75 16.9 6.94L16.9 11.26L19.12 11.26C19.32 11.26 19.39 11.33 19.39 11.52L19.39 11.9C19.39 12.09 19.32 12.16 19.12 12.16L16.2 12.16C16.01 12.16 15.93 12.09 15.93 11.9L15.93 6.94C15.93 6.75 16.01 6.68 16.2 6.68L16.64 6.68Z" fill="#D1D1D1" fill-opacity="1.000000" fill-rule="nonzero"/>
		<path id="Vector" d="M21.32 8.58C21.32 7.32 22.12 6.56 23.5 6.56C24.89 6.56 25.69 7.32 25.69 8.58L25.69 10.26C25.69 11.52 24.88 12.28 23.5 12.28C22.12 12.28 21.32 11.52 21.32 10.26L21.32 8.58ZM24.77 8.58C24.77 7.87 24.33 7.49 23.53 7.49C22.74 7.49 22.3 7.88 22.3 8.58L22.3 10.27C22.3 10.99 22.74 11.36 23.53 11.36C24.33 11.36 24.77 10.97 24.77 10.27L24.77 8.58Z" fill="#D1D1D1" fill-opacity="1.000000" fill-rule="nonzero"/>
		<path id="Vector" d="M32.18 9.16C32.4 9.16 32.44 9.23 32.44 9.42L32.44 10.46C32.45 10.7 32.4 10.94 32.3 11.16C32.2 11.39 32.05 11.58 31.87 11.74C31.4 12.11 30.82 12.29 30.23 12.26C28.82 12.26 28.05 11.5 28.05 10.24L28.05 8.55C28.05 7.3 28.84 6.54 30.23 6.54C31.32 6.54 32.03 6.97 32.33 7.83C32.35 7.86 32.36 7.9 32.36 7.94C32.36 7.97 32.35 8.01 32.33 8.04C32.32 8.08 32.29 8.1 32.26 8.13C32.24 8.15 32.2 8.16 32.17 8.17L31.74 8.32C31.56 8.38 31.48 8.34 31.41 8.16C31.32 7.92 31.16 7.73 30.94 7.6C30.73 7.47 30.48 7.41 30.23 7.45C29.43 7.45 28.99 7.83 28.99 8.54L28.99 10.27C28.99 10.99 29.43 11.36 30.23 11.36C31.03 11.36 31.52 11 31.52 10.46L31.52 10.06L30.33 10.06C30.14 10.06 30.07 9.98 30.07 9.79L30.07 9.42C30.07 9.23 30.14 9.16 30.33 9.16L32.18 9.16Z" fill="#D1D1D1" fill-opacity="1.000000" fill-rule="nonzero"/>
		<path id="Vector" d="M34.7 8.58C34.7 7.32 35.49 6.56 36.88 6.56C38.26 6.56 39.06 7.32 39.06 8.58L39.06 10.26C39.06 11.52 38.26 12.28 36.88 12.28C35.5 12.28 34.7 11.52 34.7 10.26L34.7 8.58ZM38.14 8.58C38.14 7.87 37.7 7.49 36.91 7.49C36.12 7.49 35.67 7.88 35.67 8.58L35.67 10.27C35.67 10.99 36.11 11.36 36.91 11.36C37.7 11.36 38.14 10.97 38.14 10.27L38.14 8.58Z" fill="#D1D1D1" fill-opacity="1.000000" fill-rule="nonzero"/>
		<path id="Vector" d="M41.63 6.83C41.63 6.72 41.67 6.68 41.79 6.68L42.04 6.68C42.16 6.68 42.19 6.72 42.19 6.83L42.19 12C42.19 12.13 42.19 12.16 42.04 12.16L41.79 12.16C41.67 12.16 41.63 12.13 41.63 12L41.63 6.83Z" fill="#D1D1D1" fill-opacity="1.000000" fill-rule="nonzero"/>
		<path id="Vector" d="M47.16 6.68C47.61 6.68 48.04 6.86 48.37 7.18C48.69 7.5 48.87 7.93 48.87 8.39C48.87 8.84 48.69 9.28 48.37 9.6C48.04 9.92 47.61 10.1 47.16 10.1L45.52 10.1L45.52 12C45.52 12.13 45.49 12.16 45.38 12.16L45.12 12.16C45.01 12.16 44.96 12.13 44.96 12L44.96 6.83C44.96 6.72 45.01 6.68 45.12 6.68L47.16 6.68ZM47.11 9.56C47.26 9.56 47.42 9.53 47.56 9.47C47.71 9.41 47.84 9.33 47.95 9.21C48.06 9.1 48.14 8.97 48.2 8.83C48.26 8.68 48.3 8.53 48.3 8.37C48.3 8.22 48.26 8.06 48.2 7.92C48.14 7.77 48.06 7.64 47.95 7.53C47.84 7.42 47.71 7.33 47.56 7.27C47.42 7.21 47.26 7.18 47.11 7.18L45.47 7.18L45.47 9.56L47.11 9.56Z" fill="#D1D1D1" fill-opacity="1.000000" fill-rule="nonzero"/>
		<path id="Vector" d="M53.13 6.57C53.55 6.52 53.97 6.61 54.34 6.83C54.7 7.04 54.99 7.37 55.16 7.76C55.2 7.84 55.16 7.91 55.07 7.96L54.83 8.07C54.73 8.11 54.69 8.1 54.63 8C54.51 7.71 54.3 7.46 54.03 7.3C53.76 7.14 53.44 7.07 53.13 7.1C52.21 7.1 51.7 7.47 51.7 8.12C51.7 8.32 51.77 8.52 51.89 8.67C52.02 8.83 52.2 8.93 52.4 8.96C52.69 9.06 52.99 9.12 53.3 9.14C53.68 9.16 54.04 9.23 54.39 9.36C54.66 9.44 54.89 9.62 55.05 9.86C55.2 10.09 55.27 10.37 55.24 10.65C55.24 11.67 54.5 12.29 53.14 12.29C52.69 12.34 52.24 12.24 51.86 12C51.48 11.75 51.19 11.39 51.05 10.96C51.04 10.94 51.03 10.92 51.03 10.9C51.03 10.88 51.04 10.86 51.05 10.84C51.06 10.82 51.07 10.8 51.09 10.79C51.1 10.77 51.12 10.76 51.14 10.76L51.38 10.67C51.4 10.66 51.42 10.66 51.44 10.66C51.46 10.66 51.48 10.66 51.5 10.67C51.52 10.68 51.54 10.69 51.55 10.71C51.56 10.72 51.57 10.74 51.58 10.76C51.7 11.07 51.92 11.33 52.2 11.51C52.48 11.68 52.81 11.77 53.14 11.74C54.17 11.74 54.68 11.38 54.68 10.65C54.69 10.46 54.63 10.27 54.51 10.12C54.39 9.97 54.23 9.86 54.04 9.82C53.76 9.73 53.47 9.68 53.17 9.66L52.58 9.59C52.4 9.55 52.22 9.5 52.04 9.44C51.86 9.39 51.7 9.3 51.55 9.19C51.41 9.06 51.29 8.89 51.22 8.71C51.14 8.53 51.11 8.34 51.12 8.14C51.15 7.19 51.87 6.57 53.13 6.57Z" fill="#D1D1D1" fill-opacity="1.000000" fill-rule="nonzero"/>
		<path id="Vector" d="M58.18 10.3C58.21 10.68 58.38 11.05 58.66 11.31C58.94 11.58 59.31 11.72 59.7 11.72C60.08 11.72 60.46 11.58 60.74 11.31C61.02 11.05 61.19 10.68 61.21 10.3L61.21 6.83C61.21 6.72 61.25 6.68 61.37 6.68L61.62 6.68C61.74 6.68 61.78 6.72 61.78 6.83L61.78 10.29C61.78 11.53 61.05 12.28 59.7 12.28C58.35 12.28 57.62 11.53 57.62 10.29L57.62 6.83C57.62 6.72 57.66 6.68 57.77 6.68L58.03 6.68C58.15 6.68 58.18 6.72 58.18 6.83L58.18 10.3Z" fill="#D1D1D1" fill-opacity="1.000000" fill-rule="nonzero"/>
		<path id="Vector" d="M69.31 6.67C69.43 6.67 69.46 6.71 69.46 6.83L69.46 12C69.46 12.12 69.43 12.16 69.31 12.16L69.08 12.16C68.96 12.16 68.92 12.12 68.92 12L68.92 8.86C68.92 8.4 68.96 7.94 69.02 7.49L68.98 7.49C68.81 7.9 68.61 8.31 68.39 8.69L67.22 10.76C67.2 10.8 67.18 10.83 67.15 10.85C67.11 10.87 67.08 10.88 67.04 10.88L66.88 10.88C66.84 10.88 66.81 10.87 66.77 10.85C66.74 10.83 66.71 10.8 66.7 10.76L65.51 8.67C65.3 8.29 65.12 7.89 64.96 7.48L64.93 7.48C64.99 7.94 65.02 8.4 65.02 8.86L65.02 12C65.02 12.12 64.98 12.16 64.86 12.16L64.65 12.16C64.53 12.16 64.49 12.12 64.49 12L64.49 6.83C64.49 6.71 64.53 6.67 64.65 6.67L64.84 6.67C64.89 6.67 64.93 6.68 64.97 6.7C65.01 6.73 65.04 6.76 65.06 6.8L66.97 10.19L68.87 6.83C68.93 6.72 68.96 6.7 69.08 6.7L69.31 6.67Z" fill="#D1D1D1" fill-opacity="1.000000" fill-rule="nonzero"/>
		<path id="Vector" d="M6.94 11.33L6.94 15.28C6.94 15.43 6.88 15.58 6.77 15.68C6.66 15.79 6.52 15.85 6.37 15.85C6.22 15.85 6.07 15.79 5.97 15.68C5.86 15.58 5.8 15.43 5.8 15.28L5.8 11.34C5.96 11.46 6.15 11.52 6.34 11.53C6.56 11.53 6.77 11.47 6.94 11.33ZM11.79 10.2C11.65 10.2 11.51 10.25 11.41 10.35C11.31 10.46 11.25 10.6 11.25 10.74L11.25 11.43C11.25 11.58 11.31 11.72 11.41 11.83C11.52 11.94 11.67 12 11.82 12C11.97 12 12.11 11.94 12.22 11.83C12.33 11.72 12.39 11.58 12.39 11.43L12.39 10.77C12.39 10.69 12.38 10.61 12.35 10.54C12.32 10.47 12.28 10.4 12.22 10.35C12.17 10.29 12.1 10.25 12.02 10.22C11.95 10.2 11.87 10.19 11.79 10.2ZM4.56 12.83C4.36 12.82 4.17 12.76 4.02 12.65L4.02 16.6C4.02 16.75 4.08 16.9 4.18 17C4.29 17.11 4.44 17.17 4.59 17.17C4.74 17.17 4.89 17.11 4.99 17C5.1 16.9 5.16 16.75 5.16 16.6L5.16 12.67C4.98 12.79 4.77 12.84 4.56 12.83ZM10.02 9.01C9.94 9.01 9.87 9.02 9.8 9.05C9.73 9.07 9.67 9.11 9.61 9.16C9.56 9.21 9.52 9.27 9.49 9.34C9.46 9.41 9.44 9.48 9.44 9.56L9.44 12.59C9.44 12.75 9.5 12.89 9.61 13C9.72 13.11 9.86 13.17 10.02 13.17C10.17 13.17 10.31 13.11 10.42 13C10.53 12.89 10.59 12.75 10.59 12.59L10.59 9.59C10.59 9.52 10.58 9.44 10.55 9.36C10.52 9.29 10.48 9.23 10.42 9.17C10.36 9.12 10.29 9.08 10.22 9.05C10.15 9.02 10.07 9.01 9.99 9.02L10.02 9.01ZM8.2 10.18C8 10.18 7.8 10.11 7.63 9.99L7.63 13.96C7.63 14.11 7.69 14.26 7.8 14.36C7.91 14.47 8.05 14.53 8.2 14.53C8.36 14.53 8.5 14.47 8.61 14.36C8.72 14.26 8.78 14.11 8.78 13.96L8.78 10C8.6 10.13 8.39 10.19 8.18 10.19L8.2 10.18ZM3.32 13.22L3.32 2.14C3.32 2 3.27 1.88 3.17 1.78C3.07 1.68 2.94 1.63 2.81 1.63L2.69 1.63C2.55 1.63 2.42 1.68 2.33 1.78C2.23 1.88 2.18 2 2.18 2.14L2.18 13.22C2.18 13.35 2.23 13.48 2.33 13.58C2.42 13.68 2.55 13.73 2.69 13.73L2.81 13.73C2.95 13.73 3.08 13.68 3.17 13.58C3.27 13.48 3.32 13.35 3.32 13.22ZM4.62 12.41L4.5 12.41C4.36 12.41 4.23 12.36 4.14 12.26C4.04 12.16 3.99 12.03 3.99 11.9L3.99 3.46C3.99 3.32 4.04 3.19 4.14 3.1C4.24 3 4.37 2.95 4.5 2.95L4.62 2.95C4.76 2.95 4.89 3 4.98 3.1C5.08 3.19 5.13 3.32 5.13 3.46L5.13 11.91C5.13 12.04 5.08 12.17 4.98 12.27C4.89 12.37 4.76 12.42 4.62 12.42L4.62 12.41ZM6.43 11.11L6.3 11.11C6.17 11.11 6.04 11.06 5.94 10.96C5.85 10.87 5.79 10.74 5.79 10.6L5.79 4.77C5.79 4.7 5.81 4.63 5.83 4.57C5.86 4.51 5.89 4.45 5.94 4.41C5.99 4.36 6.04 4.32 6.11 4.29C6.17 4.27 6.23 4.25 6.3 4.25L6.43 4.25C6.56 4.26 6.69 4.31 6.78 4.41C6.88 4.5 6.93 4.63 6.93 4.77L6.93 10.6C6.93 10.74 6.88 10.87 6.78 10.96C6.69 11.06 6.56 11.11 6.43 11.11ZM8.23 9.78L8.12 9.78C7.98 9.78 7.85 9.72 7.76 9.63C7.66 9.53 7.61 9.4 7.6 9.27L7.6 6.13C7.6 6.06 7.61 5.99 7.63 5.92C7.66 5.85 7.69 5.79 7.74 5.74C7.79 5.69 7.85 5.65 7.91 5.62C7.98 5.59 8.05 5.58 8.12 5.58L8.24 5.58C8.37 5.58 8.5 5.64 8.6 5.73C8.7 5.83 8.75 5.96 8.75 6.09L8.75 9.26C8.75 9.33 8.74 9.39 8.71 9.46C8.69 9.52 8.65 9.58 8.6 9.62C8.55 9.67 8.5 9.71 8.43 9.74C8.37 9.76 8.3 9.78 8.24 9.78L8.23 9.78ZM10.04 8.6L9.92 8.6C9.79 8.6 9.66 8.55 9.56 8.45C9.46 8.36 9.41 8.23 9.41 8.09L9.41 7.28C9.41 7.14 9.47 7.01 9.56 6.92C9.66 6.82 9.79 6.77 9.92 6.77L10.04 6.77C10.18 6.77 10.31 6.82 10.4 6.92C10.5 7.01 10.55 7.14 10.56 7.28L10.56 8.09C10.56 8.23 10.5 8.35 10.41 8.45C10.31 8.55 10.18 8.6 10.05 8.6L10.04 8.6Z" fill="#D1D1D1" fill-opacity="1.000000" fill-rule="nonzero"/>
	</g>
</svg>
