<svg width="72.000000" height="18.580078" viewBox="0 0 72 18.5801" fill="none" xmlns="http://www.w3.org/2000/svg" xmlns:xlink="http://www.w3.org/1999/xlink">
	<desc>
			Created with Pixso.
	</desc>
	<defs>
		<clipPath id="clip43_1779">
			<rect id="Logo" rx="0.000000" width="71.000000" height="17.580645" transform="translate(0.500000 0.500000)" fill="white" fill-opacity="0"/>
		</clipPath>
	</defs>
	<rect id="Logo" rx="0.000000" width="71.000000" height="17.580645" transform="translate(0.500000 0.500000)" fill="#FFFFFF" fill-opacity="0"/>
	<g clip-path="url(#clip43_1779)">
		<path id="Vector" d="M21.4 5.84L23.15 5.84L23.15 12.89L21.4 12.89L21.4 5.84ZM23.84 10.23C23.84 8.48 24.9 7.44 26.55 7.44C28.2 7.44 29.27 8.48 29.27 10.23C29.27 11.97 28.23 13.01 26.55 13.01C24.88 13.01 23.84 12 23.84 10.23ZM27.52 10.23C27.52 9.27 27.15 8.7 26.55 8.7C25.96 8.7 25.59 9.29 25.59 10.23C25.59 11.17 25.96 11.74 26.55 11.74C27.15 11.74 27.52 11.2 27.52 10.23L27.52 10.23ZM29.93 13.23L31.6 13.23C31.68 13.41 31.81 13.55 31.98 13.65C32.15 13.74 32.35 13.78 32.54 13.75C33.2 13.75 33.55 13.39 33.55 12.87L33.55 11.89L33.52 11.89C33.38 12.19 33.15 12.44 32.87 12.61C32.59 12.78 32.26 12.86 31.93 12.84C30.66 12.84 29.82 11.88 29.82 10.21C29.82 8.54 30.62 7.49 31.95 7.49C32.29 7.48 32.63 7.57 32.91 7.75C33.2 7.93 33.43 8.2 33.56 8.51L33.56 7.54L35.3 7.54L35.3 12.83C35.3 14.1 34.18 14.89 32.52 14.89C30.98 14.89 30.03 14.2 29.93 13.23L29.93 13.23ZM33.56 10.22C33.56 9.37 33.17 8.84 32.55 8.84C31.94 8.84 31.56 9.37 31.56 10.22C31.56 11.07 31.93 11.56 32.55 11.56C33.17 11.56 33.56 11.08 33.56 10.23L33.56 10.22ZM35.95 10.22C35.95 8.48 37.02 7.44 38.67 7.44C40.32 7.44 41.4 8.48 41.4 10.22C41.4 11.96 40.35 13.01 38.67 13.01C36.99 13.01 35.95 12 35.95 10.23L35.95 10.22ZM39.64 10.22C39.64 9.26 39.26 8.7 38.67 8.7C38.08 8.7 37.74 9.29 37.74 10.23C37.74 11.18 38.1 11.74 38.7 11.74C39.29 11.74 39.64 11.2 39.64 10.23L39.64 10.22ZM42.06 6.28C42.05 6.1 42.1 5.93 42.19 5.78C42.29 5.63 42.42 5.51 42.59 5.44C42.75 5.37 42.92 5.35 43.1 5.38C43.27 5.41 43.43 5.49 43.56 5.61C43.69 5.73 43.77 5.89 43.81 6.06C43.85 6.23 43.84 6.41 43.77 6.58C43.71 6.74 43.6 6.88 43.45 6.98C43.31 7.08 43.14 7.14 42.96 7.14C42.85 7.15 42.73 7.13 42.62 7.09C42.51 7.06 42.41 7 42.32 6.91C42.24 6.83 42.17 6.74 42.12 6.63C42.08 6.52 42.06 6.41 42.06 6.29L42.06 6.28ZM42.06 7.56L43.8 7.56L43.8 12.89L42.06 12.89L42.06 7.56ZM50.12 10.22C50.12 11.96 49.35 12.95 48.03 12.95C47.69 12.98 47.35 12.89 47.06 12.72C46.77 12.54 46.54 12.28 46.4 11.97L46.37 11.97L46.37 14.59L44.62 14.59L44.62 7.54L46.37 7.54L46.37 8.5L46.4 8.5C46.53 8.18 46.76 7.91 47.05 7.73C47.33 7.54 47.67 7.45 48.01 7.47C49.35 7.49 50.15 8.49 50.15 10.23L50.12 10.22ZM48.38 10.22C48.38 9.37 47.99 8.83 47.38 8.83C46.77 8.83 46.38 9.38 46.38 10.22C46.37 11.06 46.77 11.6 47.38 11.6C47.99 11.6 48.38 11.07 48.38 10.23L48.38 10.22ZM53.11 7.43C54.56 7.43 55.44 8.12 55.48 9.22L53.89 9.22C53.89 8.84 53.58 8.6 53.1 8.6C52.61 8.6 52.4 8.79 52.4 9.06C52.4 9.33 52.59 9.42 52.98 9.5L54.09 9.73C55.16 9.95 55.61 10.38 55.61 11.19C55.61 12.29 54.6 13 53.12 13C51.64 13 50.67 12.29 50.6 11.21L52.28 11.21C52.33 11.6 52.64 11.83 53.15 11.83C53.66 11.83 53.9 11.67 53.9 11.39C53.9 11.11 53.73 11.05 53.32 10.96L52.31 10.75C51.27 10.53 50.73 9.98 50.73 9.17C50.74 8.12 51.67 7.44 53.11 7.44L53.11 7.43ZM61.42 12.87L59.74 12.87L59.74 11.88L59.71 11.88C59.62 12.21 59.41 12.51 59.13 12.71C58.85 12.91 58.51 13.01 58.16 12.99C57.9 13 57.63 12.96 57.39 12.87C57.14 12.77 56.92 12.62 56.73 12.43C56.55 12.24 56.41 12.02 56.32 11.77C56.23 11.52 56.19 11.25 56.21 10.99L56.21 7.54L57.96 7.54L57.96 10.59C57.96 11.22 58.28 11.56 58.82 11.56C58.95 11.56 59.07 11.53 59.19 11.48C59.3 11.42 59.41 11.35 59.49 11.25C59.57 11.16 59.64 11.05 59.67 10.92C59.71 10.8 59.72 10.68 59.7 10.55L59.7 7.54L61.44 7.54L61.42 12.87ZM62.26 7.54L63.95 7.54L63.95 8.57L63.98 8.57C64.07 8.24 64.27 7.95 64.55 7.75C64.82 7.55 65.16 7.44 65.5 7.44C65.85 7.42 66.19 7.52 66.47 7.74C66.74 7.95 66.92 8.26 66.98 8.61L67.01 8.61C67.12 8.26 67.34 7.96 67.63 7.75C67.93 7.53 68.29 7.43 68.65 7.44C68.89 7.44 69.12 7.48 69.34 7.57C69.56 7.66 69.76 7.79 69.93 7.96C70.09 8.13 70.22 8.34 70.3 8.56C70.38 8.78 70.41 9.02 70.39 9.26L70.39 12.89L68.65 12.89L68.65 9.72C68.65 9.14 68.39 8.87 67.9 8.87C67.79 8.87 67.68 8.9 67.59 8.94C67.49 8.98 67.4 9.05 67.33 9.13C67.25 9.21 67.2 9.31 67.17 9.41C67.14 9.51 67.13 9.62 67.14 9.73L67.14 12.89L65.49 12.89L65.49 9.7C65.49 9.16 65.22 8.87 64.75 8.87C64.64 8.87 64.53 8.9 64.43 8.94C64.33 8.99 64.24 9.05 64.17 9.14C64.09 9.22 64.04 9.31 64.01 9.42C63.97 9.52 63.96 9.64 63.98 9.74L63.98 12.89L62.23 12.89L62.26 7.54Z" fill="#D1D1D1" fill-opacity="1.000000" fill-rule="nonzero"/>
		<path id="Vector" d="M16.53 6.16C16.24 5.49 15.85 4.86 15.37 4.29C14.67 3.43 13.79 2.73 12.8 2.24C11.81 1.74 10.72 1.46 9.61 1.41C8.51 1.37 7.4 1.55 6.37 1.97C5.34 2.38 4.41 3 3.64 3.8C2.87 4.6 2.27 5.55 1.9 6.59C1.52 7.64 1.37 8.75 1.45 9.85C1.54 10.96 1.85 12.04 2.38 13.01C2.91 13.99 3.64 14.84 4.52 15.51C5.09 15.95 5.72 16.31 6.38 16.57C7.32 16.96 8.32 17.15 9.33 17.15C11.41 17.15 13.41 16.32 14.88 14.84C16.35 13.37 17.18 11.37 17.18 9.29C17.18 8.21 16.96 7.15 16.53 6.16ZM9.32 3.01C10.23 3.01 11.12 3.21 11.94 3.59C11.74 3.68 11.53 3.74 11.32 3.77C10.61 3.87 9.95 4.2 9.44 4.71C8.93 5.22 8.6 5.87 8.5 6.58C8.46 6.98 8.28 7.35 7.99 7.63C7.7 7.91 7.33 8.09 6.93 8.12C6.22 8.23 5.56 8.56 5.05 9.06C4.54 9.57 4.21 10.23 4.11 10.94C4.08 11.32 3.92 11.67 3.65 11.95C3.2 11 3 9.94 3.06 8.88C3.13 7.83 3.46 6.81 4.02 5.91C4.59 5.02 5.37 4.28 6.3 3.77C7.23 3.26 8.27 3 9.33 3L9.32 3.01ZM4.52 13.35C4.59 13.29 4.66 13.23 4.73 13.16C5.24 12.66 5.58 12 5.67 11.28C5.71 10.88 5.88 10.51 6.17 10.23C6.45 9.94 6.82 9.76 7.22 9.73C7.93 9.62 8.59 9.29 9.1 8.79C9.61 8.28 9.94 7.62 10.04 6.91C10.07 6.49 10.25 6.1 10.55 5.8C10.83 5.52 11.21 5.35 11.61 5.32C12.26 5.23 12.87 4.94 13.35 4.49C13.9 4.94 14.36 5.49 14.72 6.1C14.7 6.13 14.67 6.16 14.64 6.18C14.37 6.48 13.99 6.66 13.59 6.7C12.88 6.8 12.22 7.13 11.72 7.63C11.21 8.14 10.88 8.8 10.78 9.51C10.74 9.91 10.56 10.28 10.27 10.57C9.99 10.85 9.62 11.03 9.22 11.07C8.5 11.17 7.84 11.5 7.33 12.01C6.82 12.51 6.49 13.17 6.38 13.88C6.35 14.17 6.25 14.44 6.1 14.68C5.5 14.33 4.97 13.88 4.52 13.35ZM9.32 15.59C8.73 15.59 8.14 15.51 7.58 15.35C7.77 14.99 7.9 14.59 7.95 14.19C7.99 13.79 8.17 13.41 8.45 13.13C8.73 12.85 9.11 12.67 9.51 12.63C10.22 12.53 10.88 12.2 11.39 11.69C11.89 11.18 12.22 10.52 12.33 9.81C12.37 9.41 12.55 9.04 12.83 8.76C13.11 8.48 13.49 8.3 13.88 8.26C14.42 8.19 14.93 7.99 15.37 7.68C15.62 8.6 15.64 9.58 15.46 10.52C15.27 11.46 14.86 12.34 14.28 13.1C13.7 13.87 12.95 14.48 12.09 14.91C11.23 15.33 10.28 15.56 9.32 15.56L9.32 15.59Z" fill="#D1D1D1" fill-opacity="1.000000" fill-rule="nonzero"/>
	</g>
</svg>
