<svg width="79.000000" height="20.000000" viewBox="0 0 79 20" fill="none" xmlns="http://www.w3.org/2000/svg" xmlns:xlink="http://www.w3.org/1999/xlink">
	<desc>
			Created with Pixso.
	</desc>
	<defs>
		<clipPath id="clip43_1753">
			<rect id="Logo" rx="0.000000" width="78.000000" height="19.000000" transform="translate(0.500000 0.500000)" fill="white" fill-opacity="0"/>
		</clipPath>
	</defs>
	<rect id="Logo" rx="0.000000" width="78.000000" height="19.000000" transform="translate(0.500000 0.500000)" fill="#FFFFFF" fill-opacity="0"/>
	<g clip-path="url(#clip43_1753)">
		<path id="Vector" d="M0.45 14.83L0.45 4.94L5.3 7.69L5.3 12.11L9.18 14.33L13.06 12.11L13.06 7.69L17.91 4.94L17.91 14.83L9.18 19.77L0.45 14.83Z" fill="#D1D1D1" fill-opacity="1.000000" fill-rule="nonzero"/>
		<path id="Vector" d="M2.87 6.31L0.45 4.94L9.18 0L17.91 4.94L15.49 6.31L15.49 13.59L9.18 17.3L2.87 13.59L2.87 6.31ZM15.22 6.46L13.06 7.69L13.06 7.66L9.18 5.43L5.3 7.66L5.3 7.69L3.14 6.46L3.14 13.44L9.18 16.99L15.22 13.44L15.22 6.46Z" fill="#D1D1D1" fill-opacity="1.000000" fill-rule="evenodd"/>
		<path id="Vector" d="M22.56 14.05L22.56 5.74L24.1 5.74L24.1 12.62L27.82 12.62L27.82 14.05L22.56 14.05Z" fill="#D1D1D1" fill-opacity="1.000000" fill-rule="nonzero"/>
		<path id="Vector" d="M31.14 14.21C30.56 14.21 30.05 14.09 29.59 13.86C29.13 13.62 28.77 13.28 28.51 12.83C28.24 12.37 28.11 11.83 28.11 11.2L28.11 11.01C28.11 10.38 28.24 9.83 28.51 9.38C28.77 8.93 29.13 8.59 29.59 8.35C30.05 8.11 30.56 8 31.14 8C31.71 8 32.23 8.11 32.69 8.35C33.14 8.59 33.51 8.93 33.77 9.38C34.03 9.83 34.17 10.38 34.17 11.01L34.17 11.2C34.17 11.83 34.03 12.37 33.77 12.83C33.51 13.28 33.14 13.62 32.69 13.86C32.23 14.09 31.71 14.21 31.14 14.21ZM31.14 12.88C31.59 12.88 31.96 12.74 32.26 12.44C32.55 12.14 32.7 11.72 32.7 11.16L32.7 11.04C32.7 10.49 32.55 10.07 32.26 9.77C31.97 9.47 31.6 9.32 31.14 9.32C30.69 9.32 30.32 9.47 30.02 9.77C29.73 10.07 29.58 10.49 29.58 11.04L29.58 11.16C29.58 11.72 29.73 12.14 30.02 12.44C30.32 12.74 30.69 12.88 31.14 12.88Z" fill="#D1D1D1" fill-opacity="1.000000" fill-rule="nonzero"/>
		<path id="Vector" d="M34.72 11.13L34.72 10.94C34.72 10.32 34.84 9.79 35.08 9.36C35.32 8.92 35.64 8.58 36.03 8.35C36.43 8.11 36.87 8 37.35 8C37.87 8 38.27 8.09 38.55 8.28C38.82 8.47 39.02 8.67 39.14 8.87L39.35 8.87L39.35 8.16L40.79 8.16L40.79 15.09C40.79 15.5 40.68 15.82 40.44 16.05C40.21 16.3 39.9 16.42 39.51 16.42L35.65 16.42L35.65 15.11L39 15.11C39.22 15.11 39.33 15 39.33 14.76L39.33 13.23L39.12 13.23C39.04 13.35 38.93 13.49 38.79 13.62C38.65 13.75 38.46 13.85 38.23 13.94C38 14.03 37.7 14.07 37.35 14.07C36.87 14.07 36.43 13.96 36.03 13.73C35.64 13.49 35.32 13.15 35.08 12.72C34.84 12.27 34.72 11.75 34.72 11.13ZM37.77 12.76C38.22 12.76 38.59 12.62 38.9 12.33C39.2 12.03 39.35 11.62 39.35 11.09L39.35 10.97C39.35 10.43 39.2 10.02 38.9 9.74C38.6 9.45 38.22 9.3 37.77 9.3C37.32 9.3 36.94 9.45 36.64 9.74C36.33 10.02 36.18 10.43 36.18 10.97L36.18 11.09C36.18 11.62 36.33 12.03 36.64 12.33C36.94 12.62 37.32 12.76 37.77 12.76Z" fill="#D1D1D1" fill-opacity="1.000000" fill-rule="nonzero"/>
		<path id="Vector" d="M44.64 14.21C44.07 14.21 43.55 14.09 43.09 13.86C42.64 13.62 42.28 13.28 42.01 12.83C41.75 12.37 41.62 11.83 41.62 11.2L41.62 11.01C41.62 10.38 41.75 9.83 42.01 9.38C42.28 8.93 42.64 8.59 43.09 8.35C43.55 8.11 44.07 8 44.64 8C45.22 8 45.73 8.11 46.19 8.35C46.65 8.59 47.01 8.93 47.27 9.38C47.54 9.83 47.67 10.38 47.67 11.01L47.67 11.2C47.67 11.83 47.54 12.37 47.27 12.83C47.01 13.28 46.65 13.62 46.19 13.86C45.73 14.09 45.22 14.21 44.64 14.21ZM44.64 12.88C45.09 12.88 45.47 12.74 45.76 12.44C46.05 12.14 46.2 11.72 46.2 11.16L46.2 11.04C46.2 10.49 46.05 10.07 45.76 9.77C45.47 9.47 45.1 9.32 44.64 9.32C44.19 9.32 43.82 9.47 43.52 9.77C43.23 10.07 43.08 10.49 43.08 11.04L43.08 11.16C43.08 11.72 43.23 12.14 43.52 12.44C43.82 12.74 44.19 12.88 44.64 12.88Z" fill="#D1D1D1" fill-opacity="1.000000" fill-rule="nonzero"/>
		<path id="Vector" d="M48.5 14.05L48.5 8.16L49.97 8.16L49.97 14.05L48.5 14.05ZM49.23 7.47C48.97 7.47 48.74 7.39 48.56 7.21C48.38 7.04 48.29 6.81 48.29 6.52C48.29 6.24 48.38 6.01 48.56 5.83C48.74 5.66 48.97 5.57 49.23 5.57C49.5 5.57 49.73 5.66 49.91 5.83C50.09 6.01 50.18 6.24 50.18 6.52C50.18 6.81 50.09 7.04 49.91 7.21C49.73 7.39 49.5 7.47 49.23 7.47Z" fill="#D1D1D1" fill-opacity="1.000000" fill-rule="nonzero"/>
		<path id="Vector" d="M51.07 16.42L51.07 8.16L52.51 8.16L52.51 8.87L52.72 8.87C52.85 8.64 53.06 8.44 53.34 8.27C53.62 8.09 54.02 8 54.54 8C55 8 55.43 8.11 55.83 8.35C56.22 8.58 56.54 8.92 56.78 9.37C57.02 9.82 57.14 10.37 57.14 11.01L57.14 11.2C57.14 11.84 57.02 12.39 56.78 12.84C56.54 13.29 56.22 13.63 55.83 13.87C55.43 14.1 55 14.21 54.54 14.21C54.19 14.21 53.89 14.17 53.65 14.08C53.42 14 53.23 13.9 53.08 13.77C52.94 13.64 52.83 13.5 52.74 13.37L52.53 13.37L52.53 16.42L51.07 16.42ZM54.09 12.91C54.55 12.91 54.93 12.76 55.22 12.47C55.53 12.17 55.68 11.73 55.68 11.16L55.68 11.04C55.68 10.48 55.53 10.04 55.22 9.75C54.92 9.45 54.54 9.3 54.09 9.3C53.64 9.3 53.27 9.45 52.96 9.75C52.66 10.04 52.51 10.48 52.51 11.04L52.51 11.16C52.51 11.73 52.66 12.17 52.96 12.47C53.27 12.76 53.64 12.91 54.09 12.91Z" fill="#D1D1D1" fill-opacity="1.000000" fill-rule="nonzero"/>
		<path id="Vector" d="M60.37 14.21C59.61 14.21 59 14.05 58.51 13.71C58.03 13.38 57.74 12.91 57.64 12.29L58.99 11.93C59.05 12.21 59.14 12.43 59.26 12.59C59.39 12.75 59.55 12.86 59.74 12.93C59.93 13 60.14 13.03 60.37 13.03C60.71 13.03 60.96 12.97 61.12 12.85C61.28 12.72 61.37 12.57 61.37 12.39C61.37 12.2 61.29 12.07 61.13 11.97C60.98 11.87 60.73 11.78 60.39 11.72L60.06 11.66C59.66 11.58 59.29 11.48 58.96 11.34C58.62 11.2 58.35 11 58.15 10.76C57.95 10.51 57.85 10.2 57.85 9.81C57.85 9.23 58.06 8.78 58.48 8.47C58.9 8.15 59.45 8 60.13 8C60.78 8 61.31 8.14 61.74 8.43C62.17 8.73 62.44 9.11 62.58 9.58L61.21 10.01C61.15 9.71 61.02 9.5 60.83 9.37C60.64 9.25 60.41 9.18 60.13 9.18C59.85 9.18 59.64 9.23 59.49 9.34C59.34 9.43 59.27 9.57 59.27 9.74C59.27 9.93 59.35 10.07 59.5 10.17C59.66 10.25 59.87 10.32 60.13 10.37L60.46 10.43C60.89 10.51 61.28 10.61 61.63 10.75C61.99 10.87 62.27 11.06 62.47 11.31C62.68 11.54 62.79 11.87 62.79 12.28C62.79 12.9 62.57 13.37 62.12 13.71C61.69 14.05 61.1 14.21 60.37 14.21Z" fill="#D1D1D1" fill-opacity="1.000000" fill-rule="nonzero"/>
		<path id="Vector" d="M65.75 14.14C65.3 14.14 64.9 14.04 64.56 13.83C64.23 13.62 63.97 13.33 63.78 12.95C63.59 12.58 63.5 12.16 63.5 11.67L63.5 8.16L64.97 8.16L64.97 11.56C64.97 12 65.07 12.33 65.28 12.55C65.5 12.77 65.81 12.88 66.2 12.88C66.65 12.88 67 12.73 67.25 12.43C67.5 12.12 67.62 11.7 67.62 11.15L67.62 8.16L69.09 8.16L69.09 14.05L67.65 14.05L67.65 13.28L67.44 13.28C67.34 13.47 67.17 13.67 66.91 13.86C66.66 14.05 66.27 14.14 65.75 14.14Z" fill="#D1D1D1" fill-opacity="1.000000" fill-rule="nonzero"/>
		<path id="Vector" d="M70.2 14.05L70.2 8.16L71.64 8.16L71.64 8.8L71.85 8.8C71.95 8.6 72.12 8.43 72.35 8.29C72.58 8.14 72.89 8.07 73.27 8.07C73.68 8.07 74.01 8.15 74.26 8.32C74.51 8.47 74.7 8.68 74.83 8.94L75.04 8.94C75.17 8.69 75.36 8.48 75.6 8.32C75.84 8.15 76.18 8.07 76.62 8.07C76.98 8.07 77.3 8.15 77.59 8.3C77.88 8.45 78.12 8.69 78.29 9C78.47 9.31 78.56 9.7 78.56 10.18L78.56 14.05L77.09 14.05L77.09 10.28C77.09 9.96 77.01 9.72 76.84 9.56C76.68 9.39 76.45 9.31 76.16 9.31C75.82 9.31 75.56 9.42 75.38 9.64C75.2 9.86 75.11 10.16 75.11 10.57L75.11 14.05L73.64 14.05L73.64 10.28C73.64 9.96 73.56 9.72 73.4 9.56C73.24 9.39 73.01 9.31 72.71 9.31C72.38 9.31 72.12 9.42 71.93 9.64C71.75 9.86 71.66 10.16 71.66 10.57L71.66 14.05L70.2 14.05Z" fill="#D1D1D1" fill-opacity="1.000000" fill-rule="nonzero"/>
	</g>
</svg>
