<svg width="72.000000" height="20.571289" viewBox="0 0 72 20.5713" fill="none" xmlns="http://www.w3.org/2000/svg" xmlns:xlink="http://www.w3.org/1999/xlink">
	<desc>
			Created with Pixso.
	</desc>
	<defs>
		<clipPath id="clip43_1806">
			<rect id="Logo" rx="0.000000" width="71.000000" height="19.571428" transform="translate(0.500000 0.500000)" fill="white" fill-opacity="0"/>
		</clipPath>
	</defs>
	<rect id="Logo" rx="0.000000" width="71.000000" height="19.571428" transform="translate(0.500000 0.500000)" fill="#FFFFFF" fill-opacity="0"/>
	<g clip-path="url(#clip43_1806)">
		<path id="Vector" d="M24.04 13.08L24.04 5.08L22.73 5.08L22.73 13.08L24.04 13.08Z" fill="#D1D1D1" fill-opacity="1.000000" fill-rule="nonzero"/>
		<path id="Vector" d="M24.85 10.42C24.85 12.05 25.94 13.22 27.61 13.22C29.28 13.22 30.37 12.05 30.37 10.42C30.37 8.79 29.28 7.62 27.61 7.62C25.94 7.62 24.85 8.79 24.85 10.42ZM26.17 10.42C26.17 9.46 26.74 8.8 27.61 8.8C28.48 8.8 29.05 9.46 29.05 10.42C29.05 11.37 28.48 12.04 27.61 12.04C26.74 12.04 26.17 11.37 26.17 10.42Z" fill="#D1D1D1" fill-opacity="1.000000" fill-rule="nonzero"/>
		<path id="Vector" d="M30.82 10.31C30.82 11.86 31.82 12.98 33.31 12.98C34.08 12.98 34.75 12.67 35.08 12.15L35.08 13.05C35.08 13.93 34.54 14.51 33.62 14.51C32.81 14.51 32.25 14.11 32.17 13.41L30.85 13.41C31.02 14.8 32.08 15.7 33.55 15.7C35.27 15.7 36.36 14.57 36.36 12.82L36.36 7.77L35.2 7.77L35.13 8.5C34.81 7.94 34.14 7.6 33.35 7.6C31.84 7.6 30.82 8.75 30.82 10.31ZM32.15 10.28C32.15 9.4 32.71 8.75 33.54 8.75C34.44 8.75 35.04 9.41 35.04 10.28C35.04 11.16 34.44 11.84 33.54 11.84C32.72 11.84 32.15 11.17 32.15 10.28Z" fill="#D1D1D1" fill-opacity="1.000000" fill-rule="nonzero"/>
		<path id="Vector" d="M37.01 10.42C37.01 12.05 38.11 13.22 39.78 13.22C41.44 13.22 42.54 12.05 42.54 10.42C42.54 8.79 41.44 7.62 39.78 7.62C38.11 7.62 37.01 8.79 37.01 10.42ZM38.34 10.42C38.34 9.46 38.91 8.8 39.78 8.8C40.65 8.8 41.22 9.46 41.22 10.42C41.22 11.37 40.65 12.04 39.78 12.04C38.91 12.04 38.34 11.37 38.34 10.42Z" fill="#D1D1D1" fill-opacity="1.000000" fill-rule="nonzero"/>
		<path id="Vector" d="M43.96 6.69C44.39 6.69 44.75 6.34 44.75 5.9C44.75 5.47 44.39 5.13 43.96 5.13C43.52 5.13 43.19 5.47 43.19 5.9C43.19 6.34 43.52 6.69 43.96 6.69ZM43.3 13.08L44.62 13.08L44.62 7.77L43.3 7.77L43.3 13.08Z" fill="#D1D1D1" fill-opacity="1.000000" fill-rule="nonzero"/>
		<path id="Vector" d="M45.77 15.55L47.05 15.55L47.05 12.35C47.38 12.9 48.1 13.23 48.9 13.23C50.47 13.23 51.4 12.02 51.38 10.37C51.35 8.7 50.39 7.61 48.88 7.61C48.08 7.61 47.35 7.97 47.02 8.58L46.95 7.77L45.77 7.77L45.77 15.55ZM47.1 10.43C47.1 9.47 47.68 8.81 48.59 8.81C49.51 8.81 50.06 9.48 50.06 10.43C50.06 11.38 49.51 12.04 48.59 12.04C47.68 12.04 47.1 11.39 47.1 10.43Z" fill="#D1D1D1" fill-opacity="1.000000" fill-rule="nonzero"/>
		<path id="Vector" d="M51.71 11.49C51.76 12.55 52.57 13.23 53.84 13.23C55.09 13.23 55.94 12.56 55.94 11.53C55.94 10.76 55.47 10.25 54.59 10.03L53.66 9.81C53.26 9.7 52.99 9.56 52.99 9.21C52.99 8.85 53.28 8.59 53.76 8.59C54.25 8.59 54.57 8.87 54.57 9.33L55.77 9.33C55.72 8.28 54.94 7.61 53.79 7.61C52.65 7.61 51.8 8.28 51.8 9.29C51.8 9.98 52.2 10.55 53.22 10.82L54.14 11.05C54.49 11.15 54.7 11.31 54.7 11.61C54.7 12.03 54.3 12.23 53.82 12.23C53.24 12.23 52.91 11.96 52.91 11.49L51.71 11.49Z" fill="#D1D1D1" fill-opacity="1.000000" fill-rule="nonzero"/>
		<path id="Vector" d="M58.66 13.23C59.38 13.23 60.07 12.89 60.38 12.4L60.47 13.09L61.69 13.09L61.69 7.77L60.38 7.77L60.38 10.56C60.38 11.52 60.01 12.05 59.15 12.05C58.49 12.05 58.03 11.73 58.03 10.63L58.03 7.77L56.71 7.77L56.71 11.1C56.71 12.37 57.4 13.23 58.66 13.23Z" fill="#D1D1D1" fill-opacity="1.000000" fill-rule="nonzero"/>
		<path id="Vector" d="M64.16 13.09L64.16 10.03C64.16 9.17 64.67 8.76 65.29 8.76C65.91 8.76 66.32 9.16 66.32 9.91L66.32 13.09L67.6 13.09L67.6 10.04C67.6 9.17 68.1 8.76 68.72 8.76C69.36 8.76 69.76 9.16 69.76 9.91L69.76 13.09L71.03 13.09L71.03 9.61C71.03 8.39 70.36 7.61 69.06 7.61C68.26 7.61 67.62 8 67.37 8.62C67.08 8 66.5 7.61 65.61 7.61C64.99 7.61 64.43 7.9 64.12 8.38L64.05 7.77L62.85 7.77L62.85 13.09L64.16 13.09Z" fill="#D1D1D1" fill-opacity="1.000000" fill-rule="nonzero"/>
		<path id="Vector" d="M61.02 17.83C61.21 17.83 61.38 17.67 61.38 17.47C61.38 17.27 61.21 17.11 61.02 17.11C60.82 17.11 60.65 17.27 60.65 17.47C60.65 17.67 60.82 17.83 61.02 17.83Z" fill="#D1D1D1" fill-opacity="1.000000" fill-rule="nonzero"/>
		<path id="Vector" d="M61.76 16.51C61.76 17.29 62.24 17.82 62.95 17.82C63.55 17.82 64.02 17.46 64.11 16.91L63.65 16.91C63.56 17.22 63.3 17.4 62.98 17.4C62.53 17.4 62.24 17.05 62.24 16.5C62.24 15.95 62.54 15.61 62.99 15.61C63.3 15.61 63.56 15.77 63.65 16.1L64.11 16.1C64.03 15.54 63.6 15.17 62.99 15.17C62.26 15.17 61.76 15.71 61.76 16.51Z" fill="#D1D1D1" fill-opacity="1.000000" fill-rule="nonzero"/>
		<path id="Vector" d="M64.3 16.5C64.3 17.26 64.81 17.82 65.58 17.82C66.35 17.82 66.87 17.26 66.87 16.5C66.87 15.75 66.35 15.18 65.58 15.18C64.81 15.18 64.3 15.75 64.3 16.5ZM64.79 16.5C64.79 15.99 65.1 15.61 65.58 15.61C66.07 15.61 66.38 15.99 66.38 16.5C66.38 17.02 66.07 17.39 65.58 17.39C65.1 17.39 64.79 17.02 64.79 16.5Z" fill="#D1D1D1" fill-opacity="1.000000" fill-rule="nonzero"/>
		<path id="Vector" d="M67.76 17.77L67.76 16.25C67.76 15.86 68.01 15.6 68.37 15.6C68.72 15.6 68.93 15.82 68.93 16.22L68.93 17.77L69.4 17.77L69.4 16.26C69.4 15.86 69.65 15.6 70.01 15.6C70.35 15.6 70.57 15.82 70.57 16.22L70.57 17.77L71.04 17.77L71.04 16.12C71.04 15.53 70.7 15.18 70.12 15.18C69.73 15.18 69.43 15.37 69.3 15.68C69.17 15.37 68.89 15.18 68.48 15.18C68.17 15.18 67.89 15.32 67.75 15.57L67.71 15.25L67.28 15.25L67.28 17.77L67.76 17.77Z" fill="#D1D1D1" fill-opacity="1.000000" fill-rule="nonzero"/>
		<path id="Vector" d="M0.93 10.48L0.93 10.39L0.93 10.3L0.94 10.2L0.94 10.11L0.94 10.02L0.95 9.92L0.96 9.83L0.96 9.74L0.97 9.64L0.98 9.55L0.99 9.45L1 9.36L1.02 9.27L1.03 9.17L1.04 9.08L1.06 8.99L1.08 8.89L1.09 8.8L1.11 8.71L1.13 8.62L1.15 8.52L1.17 8.43L1.19 8.34L1.22 8.25L1.24 8.16L1.27 8.06L1.29 7.97L1.32 7.88L1.35 7.79L1.38 7.7L1.4 7.61L1.44 7.52L1.47 7.43L1.5 7.34L1.53 7.25L1.57 7.16L1.6 7.07L1.64 6.98L1.68 6.9L1.71 6.81L1.75 6.72L1.79 6.63L1.83 6.55L1.87 6.46L1.92 6.37L1.96 6.29L2 6.2L2.05 6.12L2.1 6.04L2.14 5.95L2.19 5.87L2.24 5.78L2.29 5.7L2.34 5.62L2.39 5.54L2.44 5.46L2.5 5.37L2.55 5.29L2.6 5.21L2.66 5.14L2.72 5.06L2.77 4.98L2.83 4.9L2.89 4.82L2.95 4.75L3.01 4.67L3.07 4.6L3.13 4.52L3.2 4.45L3.26 4.37L3.33 4.3L3.39 4.23L3.46 4.15L3.52 4.08L3.59 4.01L3.66 3.94L3.73 3.87L3.8 3.8L3.87 3.74L3.94 3.67L4.01 3.6L4.08 3.54L4.16 3.47L4.23 3.41L4.31 3.34L4.38 3.28L4.46 3.21L4.53 3.15L4.61 3.09L4.69 3.03L4.77 2.97L4.85 2.91L4.93 2.85L5.01 2.8L5.09 2.74L5.17 2.68L5.26 2.63L5.34 2.58L5.42 2.52L5.51 2.47L5.59 2.42L5.68 2.37L5.76 2.32L5.85 2.27L5.94 2.22L6.02 2.17L6.11 2.12L6.2 2.08L6.29 2.03L6.38 1.99L6.47 1.94L6.56 1.9L6.65 1.86L6.74 1.82L6.83 1.78L6.93 1.74L7.02 1.7L7.11 1.66L7.21 1.63L7.3 1.59L7.39 1.56L7.49 1.52L7.59 1.49L7.68 1.46L7.78 1.43L7.87 1.4L7.97 1.37L8.07 1.34L8.16 1.31L8.26 1.29L8.36 1.26L8.46 1.24L8.56 1.21L8.66 1.19L8.75 1.17L8.85 1.15L8.95 1.13L9.05 1.11L9.15 1.09L9.25 1.08L9.35 1.06L9.46 1.04L9.56 1.03L9.66 1.02L9.76 1.01L9.86 1L9.96 0.99L10.06 0.98L10.16 0.97L10.27 0.96L10.81 0.93L10.85 3.57L10.86 3.57L10.94 3.57L11.02 3.57L11.09 3.57L11.17 3.58L11.24 3.58L11.32 3.58L11.39 3.59L11.47 3.59L11.55 3.6L11.62 3.6L11.7 3.61L11.77 3.62L11.85 3.63L11.92 3.64L12 3.65L12.08 3.66L12.15 3.67L12.23 3.68L12.3 3.7L12.38 3.71L12.45 3.73L12.53 3.74L12.6 3.76L12.68 3.77L12.75 3.79L12.82 3.81L12.9 3.83L12.97 3.85L13.05 3.87L13.12 3.89L13.19 3.91L13.27 3.94L13.34 3.96L13.41 3.99L13.49 4.01L13.56 4.04L13.63 4.06L13.7 4.09L13.77 4.12L13.85 4.15L13.92 4.18L13.99 4.21L14.06 4.24L14.13 4.27L14.2 4.3L14.27 4.33L14.34 4.37L14.41 4.4L14.48 4.44L14.55 4.47L14.61 4.51L14.68 4.55L14.75 4.58L14.82 4.62L14.88 4.66L14.95 4.7L15.02 4.74L15.08 4.79L15.15 4.83L15.21 4.87L15.28 4.91L15.34 4.96L15.4 5L15.47 5.05L15.53 5.09L15.59 5.14L15.65 5.19L15.72 5.23L15.78 5.28L15.84 5.33L15.9 5.38L15.96 5.43L16.02 5.48L16.08 5.53L16.13 5.58L16.19 5.64L16.25 5.69L16.3 5.74L16.36 5.8L16.42 5.85L16.47 5.91L16.53 5.97L16.58 6.02L16.63 6.08L16.69 6.14L16.74 6.2L16.79 6.25L16.84 6.31L16.89 6.37L16.94 6.43L16.99 6.5L17.04 6.56L17.09 6.62L17.14 6.68L17.18 6.74L17.23 6.81L17.27 6.87L17.32 6.94L17.36 7L17.41 7.07L17.45 7.13L17.49 7.2L17.53 7.27L17.58 7.33L17.62 7.4L17.66 7.47L17.69 7.54L17.73 7.61L17.77 7.67L17.81 7.75L17.84 7.82L17.88 7.89L17.91 7.96L17.95 8.03L17.98 8.1L18.01 8.17L18.05 8.24L18.08 8.32L18.11 8.39L18.14 8.46L18.17 8.54L18.2 8.61L18.22 8.68L18.25 8.76L18.28 8.83L18.3 8.91L18.33 8.99L18.35 9.06L18.37 9.14L18.4 9.21L18.42 9.29L18.44 9.37L18.46 9.44L18.48 9.52L18.5 9.6L18.51 9.68L18.53 9.75L18.55 9.83L18.56 9.91L18.58 9.99L18.59 10.07L18.6 10.15L18.61 10.23L18.62 10.31L18.64 10.38L18.64 10.46L18.65 10.54L18.66 10.62L18.67 10.7L18.67 10.78L18.68 10.86L18.69 10.94L18.69 11.02L18.69 11.1L18.69 11.18L18.7 11.27L18.7 11.35L18.7 11.43L18.7 11.51L18.69 11.59L18.69 11.67L18.69 11.75L18.68 11.83L18.68 11.91L18.67 11.99L18.66 12.07L18.66 12.15L18.65 12.23L18.64 12.31L18.63 12.39L18.62 12.47L18.61 12.55L18.59 12.63L18.58 12.71L18.57 12.79L18.55 12.87L18.53 12.96L18.52 13.03L18.5 13.11L18.48 13.19L18.46 13.27L18.44 13.35L18.42 13.43L18.4 13.51L18.38 13.59L18.35 13.67L18.33 13.75L18.3 13.82L18.28 13.9L18.25 13.98L18.22 14.06L18.2 14.13L18.17 14.21L18.14 14.29L18.11 14.36L18.07 14.44L18.04 14.52L18.01 14.59L17.98 14.67L17.94 14.74L17.91 14.82L17.87 14.89L17.83 14.96L17.79 15.04L17.76 15.11L17.72 15.18L17.68 15.26L17.64 15.33L17.59 15.4L17.55 15.47L17.51 15.54L17.46 15.62L17.42 15.69L17.37 15.76L17.33 15.83L17.28 15.89L17.23 15.96L17.19 16.03L17.14 16.1L17.09 16.17L17.04 16.23L16.99 16.3L16.93 16.37L16.88 16.43L16.83 16.5L16.77 16.56L16.72 16.63L16.66 16.69L16.61 16.75L16.55 16.82L16.49 16.88L16.44 16.94L16.38 17L16.32 17.06L16.26 17.12L16.2 17.18L16.14 17.24L16.07 17.3L16.01 17.35L15.95 17.41L15.89 17.47L15.82 17.52L15.76 17.58L15.69 17.63L15.62 17.69L15.56 17.74L15.49 17.79L15.42 17.84L15.35 17.9L15.29 17.95L15.22 18L15.15 18.05L15.07 18.09L15 18.14L14.93 18.19L14.86 18.24L14.79 18.28L14.71 18.33L14.64 18.37L14.57 18.42L14.49 18.46L14.42 18.5L14.34 18.54L14.26 18.59L14.19 18.63L14.11 18.67L14.03 18.7L13.96 18.74L13.88 18.78L13.8 18.82L13.72 18.85L13.64 18.89L13.56 18.92L13.48 18.96L13.4 18.99L13.32 19.02L13.24 19.05L13.16 19.08L13.07 19.11L12.99 19.14L12.91 19.17L12.83 19.2L12.74 19.22L12.66 19.25L12.57 19.27L12.49 19.3L12.4 19.32L12.32 19.34L12.23 19.37L12.15 19.39L12.06 19.41L11.98 19.43L11.89 19.44L11.81 19.46L11.72 19.48L11.63 19.49L11.55 19.51L11.46 19.52L11.37 19.54L11.28 19.55L11.2 19.56L11.11 19.57L11.02 19.58L10.93 19.59L10.84 19.6L10.75 19.61L10.67 19.61L10.58 19.62L10.49 19.62L10.4 19.63L10.31 19.63L10.22 19.63L10.13 19.63L10.04 19.63L9.96 19.63L9.87 19.63L9.78 19.63L9.69 19.62L9.6 19.62L9.51 19.62L9.42 19.61L9.33 19.6L9.24 19.6L9.15 19.59L9.06 19.58L8.98 19.57L8.89 19.56L8.8 19.54L8.71 19.53L8.62 19.52L8.53 19.5L8.44 19.49L8.35 19.47L8.27 19.45L8.18 19.44L8.09 19.42L8 19.4L7.92 19.38L7.83 19.36L7.74 19.33L7.65 19.31L7.57 19.29L7.48 19.26L7.39 19.23L7.31 19.21L7.22 19.18L7.14 19.15L7.05 19.12L6.97 19.09L6.88 19.06L6.8 19.03L6.71 19L6.63 18.96L6.54 18.93L6.46 18.89L6.38 18.86L6.3 18.82L6.21 18.78L6.13 18.74L6.05 18.7L5.97 18.66L5.89 18.62L5.81 18.58L5.73 18.54L5.65 18.5L5.57 18.45L5.49 18.41L5.41 18.36L5.33 18.32L5.25 18.27L5.18 18.22L5.1 18.17L5.02 18.12L4.95 18.07L4.87 18.02L4.8 17.97L4.72 17.91L4.65 17.86L4.58 17.81L4.51 17.75L4.43 17.7L4.36 17.64L4.29 17.58L4.22 17.53L4.15 17.47L4.08 17.41L4.01 17.35L3.94 17.29L3.88 17.22L3.81 17.16L3.74 17.1L3.68 17.04L3.61 16.97L3.55 16.91L3.48 16.84L3.42 16.78L3.36 16.71L3.3 16.64L3.23 16.57L3.17 16.51L3.11 16.44L3.05 16.37L3 16.3L2.94 16.22L2.88 16.15L2.82 16.08L2.77 16.01L2.71 15.93L2.66 15.86L2.61 15.79L2.55 15.71L2.5 15.64L2.45 15.56L2.4 15.48L2.35 15.41L2.3 15.33L2.25 15.25L2.21 15.17L2.16 15.09L2.11 15.01L2.07 14.93L2.02 14.85L1.98 14.77L1.94 14.69L1.9 14.61L1.85 14.52L1.81 14.44L1.78 14.36L1.74 14.27L1.7 14.19L1.66 14.1L1.63 14.02L1.59 13.93L1.56 13.85L1.52 13.76L1.49 13.67L1.46 13.59L1.43 13.5L1.4 13.41L1.37 13.32L1.34 13.24L1.32 13.15L1.29 13.06L1.26 12.97L1.24 12.88L1.22 12.79L1.19 12.7L1.17 12.61L1.15 12.52L1.13 12.43L1.11 12.34L1.09 12.25L1.08 12.16L1.06 12.06L1.05 11.97L1.03 11.88L1.02 11.79L1.01 11.7L0.99 11.6L0.98 11.51L0.97 11.42L0.96 11.33L0.96 11.23L0.95 11.14L0.94 11.05L0.94 10.95L0.94 10.86L0.93 10.77L0.93 10.67L0.93 10.58L0.93 10.48ZM9.99 3.63L9.97 1.83L9.95 1.83L9.86 1.84L9.76 1.85L9.67 1.86L9.58 1.87L9.49 1.89L9.39 1.9L9.3 1.92L9.21 1.93L9.12 1.95L9.03 1.97L8.94 1.99L8.85 2.01L8.76 2.03L8.66 2.05L8.57 2.07L8.49 2.09L8.4 2.12L8.31 2.14L8.22 2.17L8.13 2.2L8.04 2.22L7.95 2.25L7.87 2.28L7.78 2.31L7.69 2.34L7.61 2.37L7.52 2.41L7.43 2.44L7.35 2.47L7.26 2.51L7.18 2.54L7.09 2.58L7.01 2.62L6.93 2.66L6.84 2.7L6.76 2.74L6.68 2.78L6.6 2.82L6.52 2.86L6.44 2.9L6.36 2.95L6.28 2.99L6.2 3.04L6.12 3.08L6.04 3.13L5.96 3.18L5.89 3.22L5.81 3.27L5.73 3.32L5.66 3.37L5.58 3.42L5.51 3.48L5.44 3.53L5.36 3.58L5.29 3.64L5.22 3.69L5.15 3.75L5.08 3.8L5.01 3.86L4.94 3.92L4.87 3.97L4.8 4.03L4.73 4.09L4.67 4.15L4.6 4.21L4.53 4.27L4.47 4.33L4.4 4.4L4.34 4.46L4.28 4.52L4.21 4.59L4.15 4.65L4.09 4.72L4.03 4.78L3.97 4.85L3.91 4.92L3.85 4.98L3.8 5.05L3.74 5.12L3.68 5.19L3.63 5.26L3.58 5.33L3.52 5.4L3.47 5.47L3.42 5.54L3.36 5.61L3.31 5.69L3.26 5.76L3.21 5.83L3.17 5.91L3.12 5.98L3.07 6.05L3.03 6.13L2.98 6.2L2.94 6.28L2.89 6.36L2.85 6.43L2.81 6.51L2.77 6.59L2.73 6.66L2.69 6.74L2.65 6.82L2.61 6.9L2.57 6.98L2.54 7.06L2.5 7.14L2.47 7.22L2.43 7.3L2.4 7.38L2.37 7.46L2.34 7.54L2.31 7.62L2.28 7.7L2.25 7.79L2.22 7.87L2.19 7.95L2.17 8.03L2.14 8.12L2.12 8.2L2.09 8.28L2.07 8.37L2.05 8.45L2.03 8.53L2.01 8.62L1.99 8.7L1.97 8.79L1.95 8.87L1.94 8.96L1.92 9.04L1.91 9.12L1.89 9.21L1.88 9.29L1.87 9.38L1.85 9.46L1.84 9.55L1.83 9.64L1.83 9.72L1.82 9.81L1.81 9.89L1.81 9.98L1.8 10.06L1.8 10.15L1.79 10.23L1.79 10.32L1.79 10.4L1.79 10.49L1.79 10.57L1.79 10.66L1.79 10.74L1.79 10.83L1.8 10.91L1.8 11L1.81 11.08L1.81 11.17L1.82 11.25L1.83 11.34L1.84 11.42L1.84 11.51L1.86 11.59L1.87 11.67L1.88 11.76L1.89 11.84L1.91 11.93L1.92 12.01L1.94 12.09L1.95 12.17L1.97 12.26L1.99 12.34L2.01 12.42L2.03 12.5L2.05 12.59L2.07 12.67L2.09 12.75L2.11 12.83L2.14 12.91L2.16 12.99L2.19 13.07L2.21 13.15L2.24 13.23L2.27 13.31L2.3 13.39L2.33 13.47L2.36 13.55L2.39 13.62L2.42 13.7L2.45 13.78L2.49 13.86L2.52 13.93L2.56 14.01L2.59 14.08L2.63 14.16L2.66 14.24L2.7 14.31L2.74 14.38L2.78 14.46L2.82 14.53L2.86 14.6L2.9 14.68L2.95 14.75L2.99 14.82L3.03 14.89L3.08 14.96L3.12 15.03L3.17 15.1L3.21 15.17L3.26 15.24L3.31 15.31L3.36 15.38L3.41 15.44L3.46 15.51L3.51 15.58L3.56 15.64L3.61 15.71L3.66 15.77L3.72 15.83L3.77 15.9L3.83 15.96L3.88 16.02L3.94 16.08L3.99 16.15L4.05 16.21L4.11 16.27L4.16 16.33L4.22 16.38L4.28 16.44L4.34 16.5L4.4 16.56L4.46 16.61L4.52 16.67L4.59 16.72L4.65 16.78L4.71 16.83L4.77 16.89L4.84 16.94L4.9 16.99L4.97 17.04L5.03 17.09L5.1 17.14L5.16 17.19L5.23 17.24L5.3 17.29L5.37 17.33L5.43 17.38L5.5 17.43L5.57 17.47L5.64 17.52L5.71 17.56L5.78 17.6L5.85 17.64L5.92 17.69L6 17.73L6.07 17.77L6.14 17.81L6.21 17.84L6.29 17.88L6.36 17.92L6.43 17.95L6.51 17.99L6.58 18.03L6.65 18.06L6.73 18.09L6.8 18.13L6.88 18.16L6.96 18.19L7.03 18.22L7.11 18.25L7.18 18.28L7.26 18.31L7.34 18.33L7.42 18.36L7.49 18.38L7.57 18.41L7.65 18.43L7.73 18.46L7.81 18.48L7.88 18.5L7.96 18.52L8.04 18.54L8.12 18.56L8.2 18.58L8.28 18.6L8.36 18.62L8.44 18.63L8.52 18.65L8.6 18.66L8.68 18.68L8.76 18.69L8.84 18.7L8.92 18.71L9 18.73L9.08 18.74L9.16 18.75L9.24 18.75L9.32 18.76L9.4 18.77L9.48 18.77L9.56 18.78L9.64 18.78L9.72 18.79L9.8 18.79L9.88 18.79L9.97 18.79L10.05 18.79L10.13 18.79L10.21 18.79L10.29 18.79L10.37 18.79L10.45 18.78L10.53 18.78L10.61 18.78L10.69 18.77L10.77 18.76L10.85 18.76L10.93 18.75L11.01 18.74L11.09 18.73L11.16 18.72L11.24 18.71L11.32 18.7L11.4 18.68L11.48 18.67L11.56 18.66L11.64 18.64L11.71 18.62L11.79 18.61L11.87 18.59L11.95 18.57L12.02 18.55L12.1 18.53L12.18 18.51L12.25 18.49L12.33 18.47L12.41 18.45L12.48 18.43L12.56 18.4L12.63 18.38L12.71 18.35L12.78 18.33L12.85 18.3L12.93 18.27L13 18.24L13.07 18.21L13.15 18.18L13.22 18.15L13.29 18.12L13.36 18.09L13.43 18.06L13.51 18.03L13.58 17.99L13.65 17.96L13.72 17.92L13.79 17.89L13.85 17.85L13.92 17.81L13.99 17.78L14.06 17.74L14.13 17.7L14.19 17.66L14.26 17.62L14.32 17.58L14.39 17.54L14.46 17.49L14.52 17.45L14.58 17.41L14.65 17.36L14.71 17.32L14.77 17.27L14.84 17.23L14.9 17.18L14.96 17.14L15.02 17.09L15.08 17.04L15.14 16.99L15.2 16.94L15.26 16.89L15.31 16.84L15.37 16.79L15.43 16.74L15.48 16.69L15.54 16.64L15.59 16.58L15.65 16.53L15.7 16.48L15.76 16.42L15.81 16.37L15.86 16.31L15.91 16.26L15.96 16.2L16.01 16.14L16.06 16.09L16.11 16.03L16.16 15.97L16.21 15.91L16.26 15.85L16.3 15.79L16.35 15.73L16.39 15.67L16.44 15.61L16.48 15.55L16.53 15.49L16.57 15.43L16.61 15.37L16.65 15.3L16.69 15.24L16.73 15.18L16.77 15.11L16.81 15.05L16.85 14.99L16.89 14.92L16.92 14.86L16.96 14.79L17 14.73L17.03 14.66L17.06 14.59L17.1 14.53L17.13 14.46L17.16 14.39L17.19 14.33L17.22 14.26L17.25 14.19L17.28 14.12L17.31 14.05L17.34 13.98L17.36 13.92L17.39 13.85L17.42 13.78L17.44 13.71L17.46 13.64L17.49 13.57L17.51 13.5L17.53 13.43L17.55 13.36L17.57 13.29L17.59 13.22L17.61 13.15L17.63 13.07L17.65 13L17.66 12.93L17.68 12.86L17.69 12.79L17.71 12.72L17.72 12.65L17.73 12.57L17.75 12.5L17.76 12.43L17.77 12.36L17.78 12.29L17.79 12.21L17.8 12.14L17.8 12.07L17.81 12L17.82 11.93L17.82 11.85L17.83 11.78L17.83 11.71L17.83 11.64L17.84 11.56L17.84 11.49L17.84 11.42L17.84 11.35L17.84 11.28L17.84 11.2L17.84 11.13L17.83 11.06L17.83 10.99L17.83 10.92L17.82 10.84L17.81 10.77L17.81 10.7L17.8 10.63L17.79 10.56L17.78 10.49L17.78 10.42L17.77 10.35L17.75 10.27L17.74 10.2L17.73 10.13L17.72 10.06L17.7 9.99L17.69 9.92L17.67 9.85L17.66 9.78L17.64 9.71L17.63 9.65L17.61 9.58L17.59 9.51L17.57 9.44L17.55 9.37L17.53 9.3L17.51 9.24L17.49 9.17L17.46 9.1L17.44 9.03L17.42 8.97L17.39 8.9L17.37 8.83L17.34 8.77L17.31 8.7L17.29 8.64L17.26 8.57L17.23 8.51L17.2 8.44L17.17 8.38L17.14 8.32L17.11 8.25L17.08 8.19L17.04 8.13L17.01 8.06L16.98 8L16.94 7.94L16.91 7.88L16.87 7.82L16.84 7.76L16.8 7.7L16.76 7.64L16.73 7.58L16.69 7.52L16.65 7.46L16.61 7.41L16.57 7.35L16.53 7.29L16.49 7.23L16.45 7.18L16.4 7.12L16.36 7.07L16.32 7.01L16.27 6.96L16.23 6.9L16.18 6.85L16.14 6.8L16.09 6.74L16.04 6.69L16 6.64L15.95 6.59L15.9 6.54L15.85 6.49L15.8 6.44L15.75 6.39L15.7 6.34L15.65 6.29L15.6 6.25L15.55 6.2L15.5 6.15L15.45 6.11L15.4 6.06L15.34 6.02L15.29 5.97L15.23 5.93L15.18 5.89L15.13 5.84L15.07 5.8L15.01 5.76L14.96 5.72L14.9 5.68L14.85 5.64L14.79 5.6L14.73 5.56L14.67 5.53L14.62 5.49L14.56 5.45L14.5 5.41L14.44 5.38L14.38 5.34L14.32 5.31L14.26 5.28L14.2 5.24L14.14 5.21L14.08 5.18L14.02 5.15L13.95 5.12L13.89 5.09L13.83 5.06L13.77 5.03L13.71 5L13.64 4.97L13.58 4.95L13.52 4.92L13.45 4.9L13.39 4.87L13.32 4.85L13.26 4.82L13.2 4.8L13.13 4.78L13.07 4.76L13 4.73L12.94 4.71L12.87 4.69L12.81 4.68L12.74 4.66L12.67 4.64L12.61 4.62L12.54 4.61L12.48 4.59L12.41 4.57L12.34 4.56L12.28 4.55L12.21 4.53L12.14 4.52L12.08 4.51L12.01 4.5L11.94 4.49L11.88 4.48L11.81 4.47L11.74 4.46L11.68 4.45L11.61 4.44L11.54 4.44L11.47 4.43L11.41 4.43L11.34 4.42L11.27 4.42L11.21 4.42L11.14 4.41L11.07 4.41L11 4.41L10.94 4.41L10.87 4.41L10.86 4.41L10.88 6.2L10.92 6.2L10.96 6.2L11.01 6.2L11.06 6.2L11.11 6.2L11.16 6.2L11.21 6.2L11.26 6.21L11.31 6.21L11.36 6.22L11.41 6.22L11.46 6.23L11.51 6.23L11.55 6.24L11.6 6.24L11.65 6.25L11.7 6.26L11.75 6.27L11.8 6.28L11.85 6.29L11.9 6.29L11.95 6.3L11.99 6.32L12.04 6.33L12.09 6.34L12.14 6.35L12.19 6.36L12.24 6.37L12.29 6.39L12.33 6.4L12.38 6.42L12.43 6.43L12.48 6.45L12.53 6.46L12.57 6.48L12.62 6.5L12.67 6.51L12.71 6.53L12.76 6.55L12.81 6.57L12.86 6.59L12.9 6.61L12.95 6.63L12.99 6.65L13.04 6.67L13.09 6.69L13.13 6.71L13.18 6.74L13.22 6.76L13.27 6.78L13.31 6.81L13.36 6.83L13.4 6.86L13.45 6.88L13.49 6.91L13.53 6.93L13.58 6.96L13.62 6.99L13.66 7.02L13.71 7.04L13.75 7.07L13.79 7.1L13.83 7.13L13.87 7.16L13.92 7.19L13.96 7.22L14 7.25L14.04 7.28L14.08 7.32L14.12 7.35L14.16 7.38L14.2 7.41L14.24 7.45L14.28 7.48L14.31 7.52L14.35 7.55L14.39 7.59L14.43 7.62L14.46 7.66L14.5 7.69L14.54 7.73L14.57 7.77L14.61 7.81L14.64 7.84L14.68 7.88L14.71 7.92L14.75 7.96L14.78 8L14.82 8.04L14.85 8.08L14.88 8.12L14.91 8.16L14.95 8.2L14.98 8.24L15.01 8.29L15.04 8.33L15.07 8.37L15.1 8.41L15.13 8.46L15.16 8.5L15.19 8.54L15.21 8.59L15.24 8.63L15.27 8.68L15.3 8.72L15.32 8.77L15.35 8.81L15.37 8.86L15.4 8.91L15.42 8.95L15.45 9L15.47 9.05L15.49 9.1L15.52 9.14L15.54 9.19L15.56 9.24L15.58 9.29L15.6 9.34L15.62 9.39L15.64 9.43L15.66 9.48L15.68 9.53L15.7 9.58L15.72 9.63L15.73 9.68L15.75 9.73L15.77 9.79L15.78 9.84L15.8 9.89L15.81 9.94L15.83 9.99L15.84 10.04L15.86 10.09L15.87 10.15L15.88 10.2L15.89 10.25L15.9 10.3L15.91 10.35L15.92 10.41L15.93 10.46L15.94 10.51L15.95 10.57L15.96 10.62L15.97 10.67L15.97 10.73L15.98 10.78L15.98 10.83L15.99 10.89L15.99 10.94L16 11L16 11.05L16 11.1L16.01 11.16L16.01 11.21L16.01 11.27L16.01 11.32L16.01 11.37L16.01 11.43L16.01 11.48L16.01 11.54L16.01 11.59L16 11.65L16 11.7L16 11.76L15.99 11.81L15.99 11.87L15.98 11.92L15.97 11.98L15.97 12.03L15.96 12.08L15.95 12.14L15.95 12.19L15.94 12.25L15.93 12.3L15.92 12.36L15.91 12.41L15.89 12.46L15.88 12.52L15.87 12.57L15.86 12.63L15.84 12.68L15.83 12.73L15.82 12.79L15.8 12.84L15.79 12.89L15.77 12.95L15.75 13L15.74 13.05L15.72 13.11L15.7 13.16L15.68 13.21L15.66 13.26L15.64 13.32L15.62 13.37L15.6 13.42L15.58 13.47L15.55 13.52L15.53 13.58L15.51 13.63L15.48 13.68L15.46 13.73L15.43 13.78L15.41 13.83L15.38 13.88L15.36 13.93L15.33 13.98L15.3 14.03L15.27 14.08L15.24 14.13L15.21 14.18L15.18 14.23L15.15 14.27L15.12 14.32L15.09 14.37L15.06 14.42L15.03 14.46L14.99 14.51L14.96 14.56L14.93 14.6L14.89 14.65L14.86 14.7L14.82 14.74L14.79 14.79L14.75 14.83L14.71 14.88L14.68 14.92L14.64 14.96L14.6 15.01L14.56 15.05L14.52 15.09L14.48 15.14L14.44 15.18L14.4 15.22L14.36 15.26L14.32 15.3L14.28 15.34L14.23 15.38L14.19 15.42L14.15 15.46L14.1 15.5L14.06 15.54L14.02 15.58L13.97 15.61L13.92 15.65L13.88 15.69L13.83 15.72L13.79 15.76L13.74 15.8L13.69 15.83L13.64 15.87L13.59 15.9L13.55 15.93L13.5 15.97L13.45 16L13.4 16.03L13.35 16.06L13.3 16.1L13.25 16.13L13.2 16.16L13.14 16.19L13.09 16.22L13.04 16.25L12.99 16.28L12.93 16.3L12.88 16.33L12.83 16.36L12.77 16.38L12.72 16.41L12.66 16.44L12.61 16.46L12.55 16.49L12.5 16.51L12.44 16.53L12.39 16.56L12.33 16.58L12.27 16.6L12.22 16.62L12.16 16.64L12.1 16.66L12.05 16.68L11.99 16.7L11.93 16.72L11.87 16.74L11.81 16.75L11.76 16.77L11.7 16.79L11.64 16.8L11.58 16.82L11.52 16.83L11.46 16.85L11.4 16.86L11.34 16.87L11.28 16.88L11.22 16.9L11.16 16.91L11.1 16.92L11.04 16.93L10.98 16.94L10.92 16.95L10.85 16.95L10.79 16.96L10.73 16.97L10.67 16.97L10.61 16.98L10.55 16.99L10.48 16.99L10.42 16.99L10.36 17L10.3 17L10.24 17L10.17 17L10.11 17L10.05 17L9.99 17L9.93 17L9.86 17L9.8 17L9.74 17L9.68 16.99L9.61 16.99L9.55 16.98L9.49 16.98L9.43 16.97L9.36 16.97L9.3 16.96L9.24 16.95L9.18 16.94L9.11 16.93L9.05 16.92L8.99 16.91L8.93 16.9L8.87 16.89L8.8 16.88L8.74 16.87L8.68 16.85L8.62 16.84L8.56 16.83L8.5 16.81L8.43 16.79L8.37 16.78L8.31 16.76L8.25 16.74L8.19 16.72L8.13 16.71L8.07 16.69L8.01 16.67L7.95 16.65L7.89 16.62L7.83 16.6L7.77 16.58L7.71 16.56L7.65 16.53L7.59 16.51L7.53 16.48L7.47 16.46L7.42 16.43L7.36 16.41L7.3 16.38L7.24 16.35L7.19 16.32L7.13 16.29L7.07 16.26L7.02 16.23L6.96 16.2L6.9 16.17L6.85 16.14L6.79 16.11L6.74 16.07L6.68 16.04L6.63 16.01L6.57 15.97L6.52 15.94L6.47 15.9L6.41 15.86L6.36 15.83L6.31 15.79L6.25 15.75L6.2 15.71L6.15 15.67L6.1 15.64L6.05 15.59L6 15.55L5.95 15.51L5.9 15.47L5.85 15.43L5.8 15.39L5.75 15.34L5.71 15.3L5.66 15.26L5.61 15.21L5.56 15.17L5.52 15.12L5.47 15.07L5.43 15.03L5.38 14.98L5.34 14.93L5.29 14.89L5.25 14.84L5.21 14.79L5.17 14.74L5.12 14.69L5.08 14.64L5.04 14.59L5 14.54L4.96 14.49L4.92 14.43L4.88 14.38L4.84 14.33L4.8 14.27L4.77 14.22L4.73 14.17L4.69 14.11L4.66 14.06L4.62 14L4.59 13.95L4.55 13.89L4.52 13.83L4.49 13.78L4.45 13.72L4.42 13.66L4.39 13.61L4.36 13.55L4.33 13.49L4.3 13.43L4.27 13.37L4.24 13.31L4.21 13.25L4.19 13.19L4.16 13.13L4.13 13.07L4.11 13.01L4.08 12.95L4.06 12.89L4.04 12.83L4.01 12.76L3.99 12.7L3.97 12.64L3.95 12.58L3.93 12.51L3.91 12.45L3.89 12.39L3.87 12.32L3.85 12.26L3.83 12.19L3.82 12.13L3.8 12.07L3.79 12L3.77 11.94L3.76 11.87L3.74 11.8L3.73 11.74L3.72 11.67L3.71 11.61L3.7 11.54L3.69 11.48L3.68 11.41L3.67 11.34L3.66 11.28L3.65 11.21L3.65 11.14L3.64 11.08L3.64 11.01L3.63 10.94L3.63 10.88L3.62 10.81L3.62 10.74L3.62 10.67L3.62 10.61L3.62 10.54L3.62 10.47L3.62 10.4L3.62 10.34L3.62 10.27L3.63 10.2L3.63 10.13L3.63 10.07L3.64 10L3.64 9.93L3.65 9.86L3.66 9.8L3.67 9.73L3.67 9.66L3.68 9.59L3.69 9.53L3.7 9.46L3.72 9.39L3.73 9.32L3.74 9.26L3.75 9.19L3.77 9.12L3.78 9.06L3.8 8.99L3.82 8.92L3.83 8.86L3.85 8.79L3.87 8.72L3.89 8.66L3.91 8.59L3.93 8.53L3.95 8.46L3.97 8.4L3.99 8.33L4.02 8.27L4.04 8.2L4.06 8.14L4.09 8.07L4.11 8.01L4.14 7.94L4.17 7.88L4.2 7.82L4.22 7.75L4.25 7.69L4.28 7.63L4.31 7.56L4.35 7.5L4.38 7.44L4.41 7.38L4.44 7.32L4.48 7.26L4.51 7.2L4.55 7.13L4.58 7.07L4.62 7.01L4.66 6.95L4.69 6.9L4.73 6.84L4.77 6.78L4.81 6.72L4.85 6.66L4.89 6.6L4.93 6.55L4.97 6.49L5.02 6.43L5.06 6.38L5.1 6.32L5.15 6.27L5.19 6.21L5.24 6.16L5.28 6.1L5.33 6.05L5.38 6L5.43 5.94L5.47 5.89L5.52 5.84L5.57 5.79L5.62 5.74L5.67 5.69L5.72 5.64L5.78 5.59L5.83 5.54L5.88 5.49L5.94 5.44L5.99 5.39L6.04 5.35L6.1 5.3L6.15 5.25L6.21 5.21L6.27 5.16L6.32 5.12L6.38 5.08L6.44 5.03L6.5 4.99L6.55 4.95L6.61 4.91L6.67 4.87L6.73 4.82L6.79 4.79L6.86 4.75L6.92 4.71L6.98 4.67L7.04 4.63L7.1 4.59L7.17 4.56L7.23 4.52L7.3 4.49L7.36 4.45L7.42 4.42L7.49 4.38L7.56 4.35L7.62 4.32L7.69 4.29L7.75 4.26L7.82 4.23L7.89 4.2L7.96 4.17L8.02 4.14L8.09 4.11L8.16 4.08L8.23 4.06L8.3 4.03L8.37 4.01L8.44 3.98L8.51 3.96L8.58 3.94L8.65 3.91L8.72 3.89L8.79 3.87L8.86 3.85L8.94 3.83L9.01 3.81L9.08 3.79L9.15 3.78L9.23 3.76L9.3 3.74L9.37 3.73L9.44 3.71L9.52 3.7L9.59 3.69L9.67 3.67L9.74 3.66L9.81 3.65L9.89 3.64L9.96 3.63L9.99 3.63ZM10.02 6.28L10 4.47L9.94 4.48L9.87 4.49L9.81 4.5L9.74 4.51L9.68 4.52L9.61 4.54L9.55 4.55L9.48 4.56L9.42 4.58L9.35 4.59L9.29 4.61L9.23 4.62L9.16 4.64L9.1 4.66L9.04 4.67L8.97 4.69L8.91 4.71L8.85 4.73L8.78 4.75L8.72 4.77L8.66 4.79L8.6 4.82L8.54 4.84L8.48 4.86L8.42 4.89L8.36 4.91L8.3 4.94L8.24 4.96L8.18 4.99L8.12 5.01L8.06 5.04L8 5.07L7.94 5.1L7.88 5.13L7.83 5.16L7.77 5.19L7.71 5.22L7.66 5.25L7.6 5.28L7.54 5.31L7.49 5.35L7.43 5.38L7.38 5.41L7.32 5.45L7.27 5.48L7.22 5.52L7.16 5.55L7.11 5.59L7.06 5.63L7.01 5.66L6.96 5.7L6.9 5.74L6.85 5.78L6.8 5.82L6.75 5.86L6.7 5.9L6.66 5.94L6.61 5.98L6.56 6.02L6.51 6.06L6.47 6.1L6.42 6.15L6.37 6.19L6.33 6.23L6.28 6.28L6.24 6.32L6.19 6.37L6.15 6.41L6.11 6.46L6.06 6.5L6.02 6.55L5.98 6.6L5.94 6.64L5.9 6.69L5.86 6.74L5.82 6.79L5.78 6.84L5.74 6.89L5.7 6.93L5.67 6.98L5.63 7.03L5.59 7.08L5.56 7.13L5.52 7.19L5.49 7.24L5.45 7.29L5.42 7.34L5.39 7.39L5.35 7.45L5.32 7.5L5.29 7.55L5.26 7.6L5.23 7.66L5.2 7.71L5.17 7.77L5.14 7.82L5.11 7.87L5.09 7.93L5.06 7.98L5.03 8.04L5.01 8.09L4.98 8.15L4.96 8.21L4.93 8.26L4.91 8.32L4.89 8.37L4.87 8.43L4.84 8.49L4.82 8.54L4.8 8.6L4.78 8.66L4.76 8.72L4.75 8.77L4.73 8.83L4.71 8.89L4.69 8.95L4.68 9.01L4.66 9.06L4.65 9.12L4.63 9.18L4.62 9.24L4.61 9.3L4.59 9.36L4.58 9.41L4.57 9.47L4.56 9.53L4.55 9.59L4.54 9.65L4.53 9.71L4.52 9.77L4.52 9.83L4.51 9.89L4.5 9.95L4.5 10L4.49 10.06L4.49 10.12L4.48 10.18L4.48 10.24L4.48 10.3L4.48 10.36L4.48 10.42L4.47 10.48L4.47 10.54L4.48 10.6L4.48 10.66L4.48 10.71L4.48 10.77L4.48 10.83L4.49 10.89L4.49 10.95L4.49 11.01L4.5 11.07L4.51 11.12L4.51 11.18L4.52 11.24L4.53 11.3L4.54 11.36L4.54 11.41L4.55 11.47L4.56 11.53L4.57 11.59L4.58 11.64L4.6 11.7L4.61 11.76L4.62 11.82L4.64 11.87L4.65 11.93L4.66 11.98L4.68 12.04L4.69 12.1L4.71 12.15L4.73 12.21L4.75 12.26L4.76 12.32L4.78 12.37L4.8 12.43L4.82 12.48L4.84 12.54L4.86 12.59L4.88 12.64L4.9 12.7L4.93 12.75L4.95 12.8L4.97 12.86L5 12.91L5.02 12.96L5.04 13.01L5.07 13.06L5.1 13.11L5.12 13.16L5.15 13.22L5.18 13.27L5.2 13.32L5.23 13.37L5.26 13.41L5.29 13.46L5.32 13.51L5.35 13.56L5.38 13.61L5.41 13.66L5.45 13.7L5.48 13.75L5.51 13.8L5.54 13.84L5.58 13.89L5.61 13.94L5.64 13.98L5.68 14.03L5.72 14.07L5.75 14.12L5.79 14.16L5.82 14.2L5.86 14.25L5.9 14.29L5.94 14.33L5.97 14.37L6.01 14.41L6.05 14.45L6.09 14.49L6.13 14.53L6.17 14.57L6.21 14.61L6.25 14.65L6.29 14.69L6.33 14.73L6.38 14.77L6.42 14.8L6.46 14.84L6.5 14.87L6.55 14.91L6.59 14.95L6.64 14.98L6.68 15.02L6.72 15.05L6.77 15.08L6.82 15.12L6.86 15.15L6.91 15.18L6.95 15.21L7 15.24L7.05 15.27L7.09 15.3L7.14 15.33L7.19 15.36L7.24 15.39L7.28 15.42L7.33 15.45L7.38 15.47L7.43 15.5L7.48 15.53L7.53 15.55L7.58 15.58L7.63 15.6L7.68 15.62L7.73 15.65L7.78 15.67L7.83 15.69L7.88 15.72L7.93 15.74L7.98 15.76L8.03 15.78L8.08 15.8L8.13 15.82L8.19 15.84L8.24 15.86L8.29 15.87L8.34 15.89L8.39 15.91L8.45 15.92L8.5 15.94L8.55 15.96L8.6 15.97L8.66 15.98L8.71 16L8.76 16.01L8.82 16.02L8.87 16.04L8.92 16.05L8.98 16.06L9.03 16.07L9.08 16.08L9.14 16.09L9.19 16.1L9.24 16.11L9.3 16.11L9.35 16.12L9.41 16.13L9.46 16.13L9.51 16.14L9.57 16.14L9.62 16.15L9.67 16.15L9.73 16.16L9.78 16.16L9.84 16.16L9.89 16.16L9.94 16.16L10 16.17L10.05 16.17L10.1 16.17L10.16 16.16L10.21 16.16L10.27 16.16L10.32 16.16L10.37 16.16L10.43 16.15L10.48 16.15L10.53 16.15L10.59 16.14L10.64 16.13L10.69 16.13L10.74 16.12L10.8 16.12L10.85 16.11L10.9 16.1L10.95 16.09L11.01 16.08L11.06 16.07L11.11 16.06L11.16 16.05L11.21 16.04L11.26 16.03L11.32 16.02L11.37 16.01L11.42 15.99L11.47 15.98L11.52 15.97L11.57 15.95L11.62 15.94L11.67 15.92L11.72 15.9L11.77 15.89L11.82 15.87L11.87 15.85L11.92 15.84L11.96 15.82L12.01 15.8L12.06 15.78L12.11 15.76L12.16 15.74L12.2 15.72L12.25 15.7L12.3 15.68L12.35 15.66L12.39 15.63L12.44 15.61L12.48 15.59L12.53 15.56L12.57 15.54L12.62 15.52L12.66 15.49L12.71 15.47L12.75 15.44L12.8 15.41L12.84 15.39L12.88 15.36L12.93 15.33L12.97 15.31L13.01 15.28L13.05 15.25L13.1 15.22L13.14 15.19L13.18 15.16L13.22 15.13L13.26 15.1L13.3 15.07L13.34 15.04L13.38 15.01L13.42 14.97L13.45 14.94L13.49 14.91L13.53 14.88L13.57 14.84L13.61 14.81L13.64 14.78L13.68 14.74L13.71 14.71L13.75 14.67L13.78 14.64L13.82 14.6L13.85 14.57L13.89 14.53L13.92 14.49L13.95 14.46L13.99 14.42L14.02 14.38L14.05 14.34L14.08 14.31L14.11 14.27L14.14 14.23L14.17 14.19L14.2 14.15L14.23 14.11L14.26 14.07L14.29 14.03L14.32 13.99L14.35 13.95L14.37 13.91L14.4 13.87L14.43 13.83L14.45 13.79L14.48 13.75L14.5 13.71L14.53 13.67L14.55 13.62L14.57 13.58L14.6 13.54L14.62 13.5L14.64 13.45L14.66 13.41L14.69 13.37L14.71 13.33L14.73 13.28L14.75 13.24L14.77 13.19L14.79 13.15L14.8 13.11L14.82 13.06L14.84 13.02L14.86 12.97L14.87 12.93L14.89 12.88L14.9 12.84L14.92 12.79L14.93 12.75L14.95 12.71L14.96 12.66L14.98 12.61L14.99 12.57L15 12.52L15.01 12.48L15.02 12.43L15.04 12.39L15.05 12.34L15.06 12.29L15.07 12.25L15.07 12.2L15.08 12.16L15.09 12.11L15.1 12.07L15.11 12.02L15.11 11.97L15.12 11.93L15.12 11.88L15.13 11.83L15.13 11.79L15.14 11.74L15.14 11.7L15.14 11.65L15.15 11.6L15.15 11.56L15.15 11.51L15.15 11.46L15.15 11.42L15.15 11.37L15.15 11.33L15.15 11.28L15.15 11.24L15.15 11.19L15.15 11.14L15.15 11.1L15.14 11.05L15.14 11.01L15.14 10.96L15.13 10.92L15.13 10.87L15.12 10.83L15.12 10.78L15.11 10.74L15.1 10.69L15.1 10.65L15.09 10.6L15.08 10.56L15.07 10.51L15.06 10.47L15.05 10.42L15.04 10.38L15.03 10.34L15.02 10.29L15.01 10.25L15 10.21L14.99 10.16L14.98 10.12L14.96 10.08L14.95 10.03L14.94 9.99L14.92 9.95L14.91 9.91L14.89 9.86L14.88 9.82L14.86 9.78L14.84 9.74L14.83 9.7L14.81 9.66L14.79 9.61L14.78 9.57L14.76 9.53L14.74 9.49L14.72 9.45L14.7 9.41L14.68 9.37L14.66 9.33L14.64 9.29L14.62 9.26L14.6 9.22L14.58 9.18L14.55 9.14L14.53 9.1L14.51 9.07L14.48 9.03L14.46 8.99L14.44 8.95L14.41 8.92L14.39 8.88L14.36 8.85L14.34 8.81L14.31 8.77L14.29 8.74L14.26 8.7L14.23 8.67L14.21 8.64L14.18 8.6L14.15 8.57L14.12 8.54L14.09 8.5L14.07 8.47L14.04 8.44L14.01 8.4L13.98 8.37L13.95 8.34L13.92 8.31L13.89 8.28L13.86 8.25L13.83 8.22L13.8 8.19L13.76 8.16L13.73 8.13L13.7 8.1L13.67 8.07L13.63 8.05L13.6 8.02L13.57 7.99L13.54 7.96L13.5 7.94L13.47 7.91L13.43 7.88L13.4 7.86L13.37 7.83L13.33 7.81L13.3 7.78L13.26 7.76L13.23 7.74L13.19 7.71L13.15 7.69L13.12 7.67L13.08 7.65L13.05 7.62L13.01 7.6L12.97 7.58L12.93 7.56L12.9 7.54L12.86 7.52L12.82 7.5L12.79 7.48L12.75 7.46L12.71 7.44L12.67 7.43L12.63 7.41L12.6 7.39L12.56 7.37L12.52 7.36L12.48 7.34L12.44 7.33L12.4 7.31L12.36 7.3L12.32 7.28L12.28 7.27L12.24 7.25L12.21 7.24L12.17 7.23L12.13 7.22L12.09 7.2L12.05 7.19L12.01 7.18L11.97 7.17L11.93 7.16L11.89 7.15L11.85 7.14L11.81 7.13L11.77 7.12L11.72 7.12L11.68 7.11L11.64 7.1L11.6 7.09L11.56 7.09L11.52 7.08L11.48 7.07L11.44 7.07L11.4 7.06L11.36 7.06L11.32 7.05L11.28 7.05L11.24 7.05L11.2 7.04L11.16 7.04L11.12 7.04L11.08 7.04L11.04 7.04L11 7.04L10.96 7.04L10.91 7.03L10.89 7.03L10.91 8.8L10.92 8.8L10.94 8.8L10.97 8.8L10.99 8.8L11.01 8.8L11.04 8.8L11.06 8.8L11.08 8.81L11.11 8.81L11.13 8.81L11.15 8.81L11.18 8.82L11.2 8.82L11.22 8.82L11.25 8.83L11.27 8.83L11.29 8.83L11.32 8.84L11.34 8.84L11.37 8.85L11.39 8.85L11.41 8.86L11.44 8.86L11.46 8.87L11.48 8.87L11.51 8.88L11.53 8.89L11.55 8.89L11.58 8.9L11.6 8.91L11.62 8.91L11.64 8.92L11.67 8.93L11.69 8.94L11.71 8.95L11.74 8.96L11.76 8.97L11.78 8.97L11.8 8.98L11.83 8.99L11.85 9L11.87 9.01L11.9 9.02L11.92 9.04L11.94 9.05L11.96 9.06L11.98 9.07L12.01 9.08L12.03 9.09L12.05 9.1L12.07 9.12L12.09 9.13L12.12 9.14L12.14 9.16L12.16 9.17L12.18 9.18L12.2 9.2L12.22 9.21L12.24 9.22L12.26 9.24L12.28 9.25L12.3 9.27L12.33 9.28L12.35 9.3L12.37 9.32L12.39 9.33L12.41 9.35L12.43 9.36L12.44 9.38L12.46 9.4L12.48 9.41L12.5 9.43L12.52 9.45L12.54 9.47L12.56 9.48L12.58 9.5L12.6 9.52L12.61 9.54L12.63 9.56L12.65 9.58L12.67 9.6L12.69 9.62L12.7 9.64L12.72 9.66L12.74 9.68L12.75 9.7L12.77 9.72L12.79 9.74L12.8 9.76L12.82 9.78L12.83 9.8L12.85 9.82L12.87 9.84L12.88 9.87L12.9 9.89L12.91 9.91L12.92 9.93L12.94 9.95L12.95 9.98L12.97 10L12.98 10.02L12.99 10.05L13.01 10.07L13.02 10.09L13.03 10.12L13.05 10.14L13.06 10.16L13.07 10.19L13.08 10.21L13.09 10.24L13.1 10.26L13.12 10.29L13.13 10.31L13.14 10.34L13.15 10.36L13.16 10.39L13.17 10.41L13.18 10.44L13.19 10.47L13.2 10.49L13.2 10.52L13.21 10.54L13.22 10.57L13.23 10.6L13.24 10.62L13.24 10.65L13.25 10.68L13.26 10.7L13.26 10.73L13.27 10.76L13.28 10.79L13.28 10.81L13.29 10.84L13.29 10.87L13.3 10.9L13.3 10.92L13.31 10.95L13.31 10.98L13.32 11.01L13.32 11.04L13.32 11.06L13.33 11.09L13.33 11.12L13.33 11.15L13.33 11.18L13.33 11.21L13.34 11.23L13.34 11.26L13.34 11.29L13.34 11.32L13.34 11.35L13.34 11.38L13.34 11.41L13.34 11.43L13.34 11.46L13.33 11.49L13.33 11.52L13.33 11.55L13.33 11.58L13.33 11.61L13.32 11.64L13.32 11.67L13.32 11.7L13.31 11.72L13.31 11.75L13.3 11.78L13.3 11.81L13.3 11.84L13.29 11.87L13.28 11.9L13.28 11.93L13.27 11.96L13.27 11.98L13.26 12.01L13.25 12.04L13.24 12.07L13.24 12.1L13.23 12.13L13.22 12.16L13.21 12.19L13.2 12.21L13.19 12.24L13.18 12.27L13.17 12.3L13.16 12.33L13.15 12.36L13.14 12.38L13.13 12.41L13.12 12.44L13.11 12.47L13.09 12.5L13.08 12.53L13.07 12.55L13.06 12.58L13.04 12.61L13.03 12.64L13.02 12.66L13 12.69L12.99 12.72L12.97 12.74L12.96 12.77L12.94 12.8L12.92 12.82L12.91 12.85L12.89 12.88L12.88 12.9L12.86 12.93L12.84 12.96L12.82 12.98L12.81 13.01L12.79 13.03L12.77 13.06L12.75 13.08L12.73 13.11L12.71 13.13L12.69 13.16L12.67 13.18L12.65 13.21L12.63 13.23L12.61 13.26L12.59 13.28L12.57 13.3L12.55 13.33L12.52 13.35L12.5 13.37L12.48 13.4L12.46 13.42L12.43 13.44L12.41 13.46L12.39 13.49L12.36 13.51L12.34 13.53L12.32 13.55L12.29 13.57L12.27 13.59L12.24 13.62L12.22 13.64L12.19 13.66L12.17 13.68L12.14 13.7L12.11 13.72L12.09 13.74L12.06 13.76L12.03 13.78L12.01 13.79L11.98 13.81L11.95 13.83L11.92 13.85L11.89 13.87L11.87 13.88L11.84 13.9L11.81 13.92L11.78 13.94L11.75 13.95L11.72 13.97L11.69 13.98L11.66 14L11.63 14.01L11.6 14.03L11.57 14.04L11.54 14.06L11.51 14.07L11.48 14.09L11.45 14.1L11.42 14.11L11.39 14.13L11.35 14.14L11.32 14.15L11.29 14.16L11.26 14.18L11.23 14.19L11.19 14.2L11.16 14.21L11.13 14.22L11.09 14.23L11.06 14.24L11.03 14.25L11 14.26L10.96 14.27L10.93 14.28L10.89 14.29L10.86 14.29L10.83 14.3L10.79 14.31L10.76 14.32L10.72 14.32L10.69 14.33L10.65 14.33L10.62 14.34L10.59 14.35L10.55 14.35L10.52 14.36L10.48 14.36L10.45 14.36L10.41 14.37L10.37 14.37L10.34 14.37L10.3 14.38L10.27 14.38L10.23 14.38L10.2 14.38L10.16 14.38L10.13 14.38L10.09 14.38L10.05 14.38L10.02 14.38L9.98 14.38L9.95 14.38L9.91 14.38L9.87 14.38L9.84 14.38L9.8 14.37L9.77 14.37L9.73 14.37L9.69 14.37L9.66 14.36L9.62 14.36L9.59 14.35L9.55 14.35L9.51 14.34L9.48 14.34L9.44 14.33L9.41 14.33L9.37 14.32L9.33 14.31L9.3 14.3L9.26 14.3L9.23 14.29L9.19 14.28L9.15 14.27L9.12 14.26L9.08 14.25L9.05 14.24L9.01 14.23L8.98 14.22L8.94 14.21L8.91 14.2L8.87 14.18L8.84 14.17L8.8 14.16L8.77 14.15L8.73 14.13L8.7 14.12L8.66 14.11L8.63 14.09L8.59 14.08L8.56 14.06L8.52 14.05L8.49 14.03L8.46 14.01L8.42 14L8.39 13.98L8.36 13.96L8.32 13.95L8.29 13.93L8.26 13.91L8.22 13.89L8.19 13.87L8.16 13.85L8.13 13.83L8.09 13.81L8.06 13.79L8.03 13.77L8 13.75L7.97 13.73L7.94 13.71L7.9 13.69L7.87 13.66L7.84 13.64L7.81 13.62L7.78 13.59L7.75 13.57L7.72 13.55L7.69 13.52L7.66 13.5L7.63 13.47L7.6 13.45L7.58 13.42L7.55 13.4L7.52 13.37L7.49 13.34L7.46 13.32L7.44 13.29L7.41 13.26L7.38 13.23L7.35 13.21L7.33 13.18L7.3 13.15L7.28 13.12L7.25 13.09L7.22 13.06L7.2 13.03L7.17 13L7.15 12.97L7.13 12.94L7.1 12.91L7.08 12.88L7.05 12.85L7.03 12.81L7.01 12.78L6.99 12.75L6.96 12.72L6.94 12.68L6.92 12.65L6.9 12.62L6.88 12.58L6.86 12.55L6.84 12.52L6.82 12.48L6.8 12.45L6.78 12.41L6.76 12.38L6.74 12.34L6.72 12.31L6.71 12.27L6.69 12.24L6.67 12.2L6.65 12.16L6.64 12.13L6.62 12.09L6.61 12.06L6.59 12.02L6.58 11.98L6.56 11.94L6.55 11.91L6.53 11.87L6.52 11.83L6.51 11.79L6.49 11.75L6.48 11.72L6.47 11.68L6.46 11.64L6.45 11.6L6.44 11.56L6.43 11.52L6.42 11.48L6.41 11.44L6.4 11.4L6.39 11.36L6.38 11.32L6.37 11.28L6.36 11.24L6.36 11.2L6.35 11.16L6.34 11.12L6.34 11.08L6.33 11.04L6.33 11L6.32 10.96L6.32 10.92L6.32 10.88L6.31 10.84L6.31 10.8L6.31 10.76L6.3 10.71L6.3 10.67L6.3 10.63L6.3 10.59L6.3 10.55L6.3 10.51L6.3 10.47L6.3 10.42L6.3 10.38L6.3 10.34L6.31 10.3L6.31 10.26L6.31 10.22L6.32 10.18L6.32 10.13L6.32 10.09L6.33 10.05L6.33 10.01L6.34 9.97L6.35 9.93L6.35 9.88L6.36 9.84L6.37 9.8L6.37 9.76L6.38 9.72L6.39 9.68L6.4 9.63L6.41 9.59L6.42 9.55L6.43 9.51L6.44 9.47L6.45 9.43L6.46 9.39L6.48 9.35L6.49 9.31L6.5 9.27L6.52 9.22L6.53 9.18L6.54 9.14L6.56 9.1L6.57 9.06L6.59 9.02L6.6 8.98L6.62 8.94L6.64 8.9L6.66 8.86L6.67 8.82L6.69 8.79L6.71 8.75L6.73 8.71L6.75 8.67L6.77 8.63L6.79 8.59L6.81 8.55L6.83 8.51L6.85 8.48L6.87 8.44L6.9 8.4L6.92 8.36L6.94 8.33L6.97 8.29L6.99 8.25L7.02 8.21L7.04 8.18L7.07 8.14L7.09 8.11L7.12 8.07L7.14 8.03L7.17 8L7.2 7.96L7.22 7.93L7.25 7.89L7.28 7.86L7.31 7.83L7.34 7.79L7.37 7.76L7.4 7.72L7.43 7.69L7.46 7.66L7.49 7.62L7.52 7.59L7.55 7.56L7.59 7.53L7.62 7.5L7.65 7.47L7.68 7.44L7.72 7.4L7.75 7.37L7.79 7.34L7.82 7.31L7.85 7.29L7.89 7.26L7.93 7.23L7.96 7.2L8 7.17L8.03 7.14L8.07 7.12L8.11 7.09L8.15 7.06L8.18 7.04L8.22 7.01L8.26 6.98L8.3 6.96L8.34 6.93L8.38 6.91L8.42 6.88L8.46 6.86L8.5 6.84L8.54 6.81L8.58 6.79L8.62 6.77L8.66 6.75L8.7 6.73L8.74 6.7L8.78 6.68L8.83 6.66L8.87 6.64L8.91 6.62L8.95 6.61L9 6.59L9.04 6.57L9.08 6.55L9.13 6.53L9.17 6.52L9.22 6.5L9.26 6.48L9.31 6.47L9.35 6.45L9.4 6.44L9.44 6.42L9.49 6.41L9.53 6.39L9.58 6.38L9.62 6.37L9.67 6.36L9.72 6.34L9.76 6.33L9.81 6.32L9.86 6.31L9.9 6.3L9.95 6.29L10 6.28L10.02 6.28ZM10.6 9.67L10.06 9.8L10.03 7.13L10.01 7.14L9.97 7.15L9.93 7.16L9.89 7.16L9.85 7.17L9.82 7.19L9.78 7.2L9.74 7.21L9.7 7.22L9.67 7.23L9.63 7.24L9.59 7.26L9.56 7.27L9.52 7.28L9.48 7.3L9.45 7.31L9.41 7.32L9.38 7.34L9.34 7.35L9.31 7.37L9.27 7.38L9.24 7.4L9.2 7.42L9.17 7.43L9.13 7.45L9.1 7.47L9.06 7.49L9.03 7.5L9 7.52L8.96 7.54L8.93 7.56L8.9 7.58L8.87 7.6L8.83 7.62L8.8 7.64L8.77 7.66L8.74 7.68L8.71 7.7L8.68 7.72L8.65 7.74L8.62 7.76L8.59 7.79L8.56 7.81L8.53 7.83L8.5 7.85L8.47 7.88L8.44 7.9L8.41 7.92L8.38 7.95L8.35 7.97L8.33 8L8.3 8.02L8.27 8.04L8.25 8.07L8.22 8.09L8.19 8.12L8.17 8.15L8.14 8.17L8.12 8.2L8.09 8.22L8.07 8.25L8.04 8.28L8.02 8.31L7.99 8.33L7.97 8.36L7.95 8.39L7.92 8.42L7.9 8.44L7.88 8.47L7.86 8.5L7.83 8.53L7.81 8.56L7.79 8.59L7.77 8.62L7.75 8.65L7.73 8.67L7.71 8.7L7.69 8.73L7.67 8.76L7.65 8.79L7.64 8.82L7.62 8.85L7.6 8.89L7.58 8.92L7.57 8.95L7.55 8.98L7.53 9.01L7.52 9.04L7.5 9.07L7.49 9.1L7.47 9.13L7.46 9.17L7.44 9.2L7.43 9.23L7.41 9.26L7.4 9.29L7.39 9.33L7.38 9.36L7.36 9.39L7.35 9.42L7.34 9.45L7.33 9.49L7.32 9.52L7.31 9.55L7.3 9.59L7.29 9.62L7.28 9.65L7.27 9.68L7.26 9.72L7.25 9.75L7.24 9.78L7.24 9.82L7.23 9.85L7.22 9.88L7.22 9.91L7.21 9.95L7.2 9.98L7.2 10.01L7.19 10.05L7.19 10.08L7.18 10.11L7.18 10.15L7.18 10.18L7.17 10.21L7.17 10.25L7.17 10.28L7.16 10.31L7.16 10.35L7.16 10.38L7.16 10.41L7.16 10.45L7.16 10.48L7.16 10.51L7.16 10.54L7.16 10.58L7.16 10.61L7.16 10.64L7.16 10.68L7.16 10.71L7.16 10.74L7.17 10.77L7.17 10.81L7.17 10.84L7.18 10.87L7.18 10.9L7.18 10.94L7.19 10.97L7.19 11L7.2 11.03L7.2 11.06L7.21 11.1L7.21 11.13L7.22 11.16L7.23 11.19L7.23 11.22L7.24 11.25L7.25 11.29L7.26 11.32L7.26 11.35L7.27 11.38L7.28 11.41L7.29 11.44L7.3 11.47L7.31 11.5L7.32 11.53L7.33 11.56L7.34 11.59L7.35 11.62L7.36 11.65L7.37 11.68L7.39 11.71L7.4 11.74L7.41 11.77L7.42 11.79L7.44 11.82L7.45 11.85L7.46 11.88L7.48 11.91L7.49 11.94L7.51 11.96L7.52 11.99L7.53 12.02L7.55 12.04L7.57 12.07L7.58 12.1L7.6 12.13L7.61 12.15L7.63 12.18L7.65 12.2L7.66 12.23L7.68 12.26L7.7 12.28L7.71 12.31L7.73 12.33L7.75 12.36L7.77 12.38L7.79 12.41L7.81 12.43L7.82 12.45L7.84 12.48L7.86 12.5L7.88 12.52L7.9 12.55L7.92 12.57L7.94 12.59L7.96 12.61L7.98 12.64L8 12.66L8.03 12.68L8.05 12.7L8.07 12.72L8.09 12.74L8.11 12.76L8.13 12.78L8.16 12.8L8.18 12.82L8.2 12.84L8.22 12.86L8.25 12.88L8.27 12.9L8.29 12.92L8.32 12.94L8.34 12.96L8.36 12.97L8.39 12.99L8.41 13.01L8.43 13.03L8.46 13.04L8.48 13.06L8.51 13.08L8.53 13.09L8.56 13.11L8.58 13.12L8.61 13.14L8.63 13.15L8.66 13.17L8.68 13.18L8.71 13.2L8.73 13.21L8.76 13.22L8.79 13.24L8.81 13.25L8.84 13.26L8.86 13.28L8.89 13.29L8.92 13.3L8.94 13.31L8.97 13.32L8.99 13.33L9.02 13.34L9.05 13.36L9.07 13.37L9.1 13.37L9.13 13.38L9.16 13.39L9.18 13.4L9.21 13.41L9.24 13.42L9.26 13.43L9.29 13.44L9.32 13.44L9.34 13.45L9.37 13.46L9.4 13.47L9.43 13.47L9.45 13.48L9.48 13.49L9.51 13.49L9.54 13.5L9.56 13.5L9.59 13.51L9.62 13.51L9.65 13.51L9.67 13.52L9.7 13.52L9.73 13.53L9.76 13.53L9.78 13.53L9.81 13.54L9.84 13.54L9.87 13.54L9.89 13.54L9.92 13.54L9.95 13.54L9.97 13.54L10 13.55L10.03 13.55L10.06 13.55L10.08 13.55L10.11 13.55L10.14 13.55L10.16 13.54L10.19 13.54L10.22 13.54L10.24 13.54L10.27 13.54L10.3 13.54L10.32 13.53L10.35 13.53L10.38 13.53L10.4 13.52L10.43 13.52L10.46 13.52L10.48 13.51L10.51 13.51L10.53 13.5L10.56 13.5L10.59 13.5L10.61 13.49L10.64 13.48L10.66 13.48L10.69 13.47L10.71 13.47L10.74 13.46L10.76 13.45L10.79 13.45L10.81 13.44L10.84 13.43L10.86 13.42L10.89 13.42L10.91 13.41L10.94 13.4L10.96 13.39L10.98 13.38L11.01 13.37L11.03 13.36L11.05 13.35L11.08 13.34L11.1 13.33L11.12 13.32L11.15 13.31L11.17 13.3L11.19 13.29L11.22 13.28L11.24 13.27L11.26 13.26L11.28 13.25L11.3 13.24L11.33 13.22L11.35 13.21L11.37 13.2L11.39 13.19L11.41 13.17L11.43 13.16L11.45 13.15L11.47 13.13L11.49 13.12L11.51 13.11L11.53 13.09L11.55 13.08L11.57 13.07L11.59 13.05L11.61 13.04L11.63 13.02L11.65 13.01L11.67 12.99L11.69 12.98L11.71 12.96L11.72 12.95L11.74 12.93L11.76 12.91L11.78 12.9L11.8 12.88L11.81 12.87L11.83 12.85L11.85 12.83L11.86 12.82L11.88 12.8L11.9 12.78L11.91 12.77L11.93 12.75L11.94 12.73L11.96 12.71L11.97 12.7L11.99 12.68L12 12.66L12.02 12.64L12.03 12.62L12.05 12.61L12.06 12.59L12.07 12.57L12.09 12.55L12.1 12.53L12.11 12.51L12.13 12.5L12.14 12.48L12.15 12.46L12.16 12.44L12.17 12.42L12.19 12.4L12.2 12.38L12.21 12.36L12.22 12.34L12.23 12.32L12.24 12.3L12.25 12.28L12.26 12.26L12.27 12.24L12.28 12.22L12.29 12.21L12.3 12.18L12.31 12.16L12.32 12.14L12.33 12.12L12.33 12.1L12.34 12.08L12.35 12.06L12.36 12.04L12.36 12.02L12.37 12L12.38 11.98L12.38 11.96L12.39 11.94L12.4 11.92L12.4 11.9L12.41 11.88L12.41 11.86L12.42 11.84L12.43 11.82L12.43 11.8L12.43 11.78L12.44 11.76L12.44 11.74L12.45 11.72L12.45 11.7L12.45 11.68L12.46 11.66L12.46 11.64L12.46 11.62L12.47 11.59L12.47 11.57L12.47 11.55L12.47 11.53L12.47 11.51L12.48 11.49L12.48 11.47L12.48 11.45L12.48 11.43L12.48 11.41L12.48 11.39L12.48 11.37L12.48 11.35L12.48 11.33L12.48 11.31L12.48 11.29L12.48 11.27L12.48 11.25L12.48 11.23L12.48 11.21L12.47 11.19L12.47 11.17L12.47 11.15L12.47 11.13L12.47 11.11L12.46 11.09L12.46 11.07L12.46 11.06L12.45 11.04L12.45 11.02L12.45 11L12.44 10.98L12.44 10.96L12.43 10.94L12.43 10.92L12.43 10.9L12.42 10.89L12.42 10.87L12.41 10.85L12.41 10.83L12.4 10.81L12.39 10.79L12.39 10.78L12.38 10.76L12.38 10.74L12.37 10.72L12.36 10.71L12.36 10.69L12.35 10.67L12.34 10.65L12.34 10.64L12.33 10.62L12.32 10.6L12.31 10.58L12.31 10.57L12.3 10.55L12.29 10.54L12.28 10.52L12.27 10.5L12.26 10.49L12.25 10.47L12.25 10.46L12.24 10.44L12.23 10.42L12.22 10.41L12.21 10.39L12.2 10.38L12.19 10.36L12.18 10.35L12.17 10.33L12.16 10.32L12.15 10.3L12.14 10.29L12.13 10.28L12.12 10.26L12.11 10.25L12.1 10.23L12.08 10.22L12.07 10.21L12.06 10.19L12.05 10.18L12.04 10.17L12.03 10.15L12.02 10.14L12 10.13L11.99 10.12L11.98 10.1L11.97 10.09L11.96 10.08L11.94 10.07L11.93 10.06L11.92 10.04L11.91 10.03L11.89 10.02L11.88 10.01L11.87 10L11.85 9.99L11.84 9.98L11.83 9.97L11.81 9.96L11.8 9.95L11.79 9.94L11.77 9.93L11.76 9.92L11.75 9.91L11.73 9.9L11.72 9.89L11.71 9.88L11.69 9.87L11.68 9.86L11.67 9.86L11.65 9.85L11.64 9.84L11.62 9.83L11.61 9.82L11.6 9.82L11.58 9.81L11.57 9.8L11.55 9.79L11.54 9.79L11.52 9.78L11.51 9.77L11.49 9.77L11.48 9.76L11.47 9.75L11.45 9.75L11.44 9.74L11.42 9.74L11.41 9.73L11.39 9.73L11.38 9.72L11.36 9.71L11.35 9.71L11.33 9.7L11.32 9.7L11.31 9.7L11.29 9.69L11.28 9.69L11.26 9.68L11.25 9.68L11.23 9.68L11.22 9.67L11.2 9.67L11.19 9.67L11.17 9.66L11.16 9.66L11.14 9.66L11.13 9.66L11.12 9.65L11.1 9.65L11.09 9.65L11.07 9.65L11.06 9.65L11.04 9.64L11.03 9.64L11.01 9.64L11 9.64L10.98 9.64L10.97 9.64L10.96 9.64L10.94 9.64L10.93 9.64L10.91 9.64L10.9 9.64L10.89 9.64L10.87 9.64L10.86 9.64L10.84 9.64L10.83 9.64L10.82 9.64L10.8 9.64L10.79 9.64L10.77 9.64L10.76 9.65L10.75 9.65L10.73 9.65L10.72 9.65L10.71 9.65L10.69 9.65L10.68 9.66L10.67 9.66L10.65 9.66L10.64 9.66L10.63 9.67L10.61 9.67L10.6 9.67Z" fill="#D1D1D1" fill-opacity="1.000000" fill-rule="evenodd"/>
	</g>
</svg>
