<svg width="72.000000" height="18.269531" viewBox="0 0 72 18.2695" fill="none" xmlns="http://www.w3.org/2000/svg" xmlns:xlink="http://www.w3.org/1999/xlink">
	<desc>
			Created with Pixso.
	</desc>
	<defs>
		<clipPath id="clip43_1793">
			<rect id="Logo" rx="0.000000" width="71.000000" height="17.268656" transform="translate(0.500000 0.500000)" fill="white" fill-opacity="0"/>
		</clipPath>
	</defs>
	<rect id="Logo" rx="0.000000" width="71.000000" height="17.268656" transform="translate(0.500000 0.500000)" fill="#FFFFFF" fill-opacity="0"/>
	<g clip-path="url(#clip43_1793)">
		<path id="Vector" d="M8.3 3.57L8.3 1.28L1.1 1.28L1.1 16.97L8.3 16.97L8.3 14.69C6.82 14.69 5.41 14.1 4.36 13.06C3.32 12.02 2.74 10.6 2.74 9.13C2.74 7.65 3.32 6.24 4.36 5.2C5.41 4.15 6.82 3.57 8.3 3.57Z" fill="#D1D1D1" fill-opacity="1.000000" fill-rule="nonzero"/>
		<path id="Vector" d="M8.3 3.57L8.3 14.69C9.77 14.69 11.19 14.11 12.23 13.06C13.27 12.02 13.86 10.6 13.86 9.13C13.86 7.66 13.27 6.24 12.23 5.2C11.19 4.16 9.77 3.57 8.3 3.57Z" fill="#D1D1D1" fill-opacity="1.000000" fill-rule="nonzero"/>
		<path id="Vector" d="M17.9 4.97L19.51 4.97L19.51 12.73L17.9 12.73L17.9 4.97Z" fill="#D1D1D1" fill-opacity="1.000000" fill-rule="nonzero"/>
		<path id="Vector" d="M20.41 10.07C20.41 9.51 20.58 8.97 20.89 8.5C21.2 8.04 21.64 7.67 22.16 7.46C22.67 7.25 23.24 7.19 23.79 7.3C24.34 7.41 24.84 7.68 25.23 8.08C25.63 8.48 25.9 8.98 26 9.53C26.11 10.08 26.05 10.65 25.84 11.16C25.62 11.67 25.26 12.11 24.79 12.42C24.32 12.73 23.78 12.89 23.22 12.89C22.85 12.89 22.48 12.82 22.14 12.68C21.79 12.54 21.48 12.33 21.22 12.07C20.96 11.81 20.75 11.5 20.62 11.15C20.48 10.81 20.41 10.44 20.41 10.07ZM24.45 10.07C24.45 9.83 24.37 9.59 24.23 9.4C24.09 9.2 23.9 9.05 23.68 8.96C23.45 8.87 23.21 8.85 22.97 8.91C22.73 8.96 22.52 9.08 22.35 9.25C22.18 9.42 22.07 9.64 22.03 9.87C21.98 10.11 22.01 10.36 22.1 10.58C22.19 10.8 22.35 10.99 22.55 11.12C22.75 11.26 22.99 11.33 23.23 11.33C23.39 11.33 23.56 11.3 23.71 11.24C23.86 11.17 24 11.08 24.11 10.96C24.22 10.84 24.31 10.7 24.37 10.55C24.43 10.4 24.45 10.23 24.44 10.07L24.45 10.07Z" fill="#D1D1D1" fill-opacity="1.000000" fill-rule="nonzero"/>
		<path id="Vector" d="M32.4 7.41L32.4 12.47C32.4 14.25 31 15.01 29.59 15.01C29.09 15.05 28.59 14.95 28.15 14.72C27.7 14.5 27.33 14.15 27.07 13.72L28.43 12.93C28.54 13.16 28.72 13.34 28.93 13.46C29.15 13.58 29.4 13.63 29.64 13.61C29.8 13.62 29.96 13.61 30.11 13.56C30.26 13.51 30.4 13.43 30.51 13.32C30.63 13.21 30.72 13.08 30.78 12.93C30.83 12.78 30.86 12.62 30.85 12.47L30.85 11.98C30.66 12.2 30.42 12.39 30.15 12.5C29.88 12.62 29.59 12.68 29.29 12.66C28.58 12.66 27.9 12.38 27.4 11.88C26.89 11.37 26.61 10.69 26.61 9.98C26.61 9.27 26.89 8.58 27.4 8.08C27.9 7.58 28.58 7.29 29.29 7.29C29.59 7.28 29.88 7.33 30.15 7.45C30.42 7.57 30.66 7.75 30.85 7.98L30.85 7.44L32.4 7.41ZM30.85 9.96C30.86 9.71 30.79 9.45 30.66 9.23C30.52 9.01 30.32 8.84 30.09 8.73C29.86 8.63 29.59 8.59 29.34 8.64C29.09 8.68 28.85 8.8 28.67 8.98C28.48 9.16 28.35 9.39 28.3 9.64C28.24 9.89 28.27 10.15 28.36 10.39C28.46 10.63 28.62 10.83 28.84 10.98C29.05 11.12 29.3 11.2 29.56 11.2C29.73 11.21 29.89 11.19 30.05 11.13C30.21 11.07 30.36 10.98 30.48 10.87C30.6 10.75 30.69 10.61 30.76 10.45C30.82 10.3 30.85 10.13 30.85 9.96Z" fill="#D1D1D1" fill-opacity="1.000000" fill-rule="nonzero"/>
		<path id="Vector" d="M33.31 10.07C33.31 9.51 33.47 8.97 33.78 8.5C34.09 8.04 34.54 7.68 35.05 7.46C35.57 7.25 36.13 7.19 36.68 7.3C37.23 7.41 37.73 7.68 38.13 8.08C38.52 8.47 38.79 8.98 38.9 9.52C39 10.07 38.95 10.64 38.73 11.15C38.52 11.67 38.16 12.11 37.69 12.42C37.23 12.73 36.68 12.89 36.12 12.89C35.75 12.89 35.38 12.82 35.04 12.68C34.7 12.54 34.39 12.33 34.12 12.07C33.86 11.81 33.65 11.5 33.51 11.15C33.37 10.81 33.3 10.44 33.31 10.07ZM37.35 10.07C37.34 9.83 37.27 9.59 37.13 9.4C36.99 9.2 36.79 9.05 36.57 8.96C36.34 8.87 36.1 8.85 35.86 8.91C35.63 8.96 35.41 9.08 35.25 9.25C35.08 9.42 34.96 9.64 34.92 9.88C34.88 10.11 34.9 10.36 35 10.58C35.09 10.8 35.25 10.99 35.45 11.13C35.65 11.26 35.89 11.33 36.13 11.33C36.29 11.33 36.46 11.3 36.61 11.24C36.76 11.17 36.9 11.08 37.01 10.96C37.12 10.84 37.21 10.7 37.27 10.55C37.33 10.4 37.35 10.23 37.34 10.07L37.35 10.07Z" fill="#D1D1D1" fill-opacity="1.000000" fill-rule="nonzero"/>
		<path id="Vector" d="M39.69 5.99C39.69 5.8 39.74 5.61 39.85 5.46C39.95 5.3 40.1 5.17 40.28 5.1C40.45 5.03 40.64 5.01 40.83 5.05C41.01 5.08 41.19 5.18 41.32 5.31C41.45 5.44 41.54 5.61 41.58 5.8C41.62 5.99 41.6 6.18 41.53 6.35C41.45 6.53 41.33 6.68 41.17 6.78C41.02 6.89 40.83 6.94 40.64 6.94C40.39 6.94 40.15 6.84 39.97 6.66C39.79 6.48 39.69 6.24 39.69 5.99ZM39.84 7.41L41.45 7.41L41.45 12.73L39.84 12.73L39.84 7.41Z" fill="#D1D1D1" fill-opacity="1.000000" fill-rule="nonzero"/>
		<path id="Vector" d="M48.35 10.07C48.37 10.42 48.32 10.78 48.2 11.11C48.08 11.44 47.9 11.75 47.66 12.01C47.42 12.28 47.13 12.49 46.81 12.64C46.49 12.79 46.14 12.88 45.79 12.89C45.49 12.91 45.19 12.86 44.91 12.75C44.63 12.64 44.38 12.46 44.18 12.24L44.18 14.87L42.57 14.87L42.57 7.41L44.18 7.41L44.18 7.91C44.38 7.69 44.63 7.51 44.91 7.4C45.19 7.29 45.49 7.25 45.79 7.27C46.14 7.28 46.49 7.37 46.81 7.52C47.13 7.66 47.41 7.88 47.65 8.14C47.89 8.4 48.08 8.7 48.2 9.03C48.32 9.37 48.37 9.72 48.35 10.07ZM46.74 10.07C46.73 9.82 46.66 9.58 46.51 9.37C46.37 9.17 46.17 9.01 45.94 8.92C45.7 8.83 45.45 8.81 45.2 8.86C44.96 8.92 44.74 9.04 44.56 9.22C44.39 9.4 44.27 9.62 44.23 9.87C44.18 10.12 44.21 10.37 44.31 10.6C44.4 10.83 44.57 11.02 44.78 11.16C44.98 11.3 45.23 11.37 45.48 11.37C45.65 11.38 45.82 11.35 45.98 11.29C46.14 11.22 46.28 11.13 46.4 11C46.52 10.88 46.61 10.73 46.67 10.57C46.73 10.41 46.75 10.24 46.74 10.07Z" fill="#D1D1D1" fill-opacity="1.000000" fill-rule="nonzero"/>
		<path id="Vector" d="M53.26 11.13C53.26 12.36 52.18 12.88 51.05 12.88C50.58 12.92 50.11 12.82 49.71 12.6C49.3 12.37 48.97 12.03 48.76 11.61L50.14 10.83C50.2 11.02 50.32 11.19 50.48 11.3C50.64 11.41 50.84 11.47 51.04 11.46C51.42 11.46 51.61 11.34 51.61 11.12C51.61 10.54 49 10.85 49 9.01C49 7.84 49.98 7.26 51.08 7.26C51.5 7.25 51.92 7.34 52.29 7.54C52.66 7.74 52.97 8.04 53.19 8.4L51.8 9.13C51.74 8.99 51.64 8.87 51.51 8.79C51.39 8.71 51.24 8.66 51.09 8.66C50.81 8.66 50.64 8.77 50.64 8.96C50.64 9.57 53.26 9.17 53.26 11.13Z" fill="#D1D1D1" fill-opacity="1.000000" fill-rule="nonzero"/>
		<path id="Vector" d="M59.1 7.41L59.1 12.73L57.49 12.73L57.49 12.23C57.3 12.45 57.07 12.63 56.81 12.74C56.55 12.85 56.26 12.91 55.97 12.89C54.9 12.89 53.98 12.12 53.98 10.69L53.98 7.41L55.59 7.41L55.59 10.44C55.58 10.57 55.59 10.7 55.63 10.82C55.68 10.94 55.74 11.05 55.83 11.14C55.92 11.24 56.03 11.31 56.15 11.35C56.27 11.4 56.39 11.42 56.52 11.41C57.1 11.41 57.51 11.07 57.51 10.34L57.51 7.41L59.1 7.41Z" fill="#D1D1D1" fill-opacity="1.000000" fill-rule="nonzero"/>
		<path id="Vector" d="M68.23 9.46L68.23 12.73L66.62 12.73L66.62 9.6C66.62 9.06 66.37 8.73 65.86 8.73C65.35 8.73 65.03 9.1 65.03 9.73L65.03 12.73L63.41 12.73L63.41 9.6C63.41 9.06 63.16 8.73 62.65 8.73C62.14 8.73 61.82 9.1 61.82 9.73L61.82 12.73L60.21 12.73L60.21 7.41L61.82 7.41L61.82 7.9C61.99 7.68 62.2 7.51 62.45 7.4C62.7 7.29 62.98 7.24 63.25 7.26C63.52 7.25 63.79 7.31 64.04 7.43C64.28 7.55 64.49 7.74 64.64 7.96C64.82 7.73 65.05 7.54 65.32 7.41C65.59 7.29 65.89 7.24 66.18 7.26C67.44 7.26 68.23 8.13 68.23 9.46Z" fill="#D1D1D1" fill-opacity="1.000000" fill-rule="nonzero"/>
		<path id="Vector" d="M69.59 7.38C70.24 7.38 70.77 6.85 70.77 6.2C70.77 5.54 70.24 5.01 69.59 5.01C68.94 5.01 68.41 5.54 68.41 6.2C68.41 6.85 68.94 7.38 69.59 7.38Z" fill="#D1D1D1" fill-opacity="1.000000" fill-rule="nonzero"/>
	</g>
</svg>
