<svg width="72.000000" height="17.892578" viewBox="0 0 72 17.8926" fill="none" xmlns="http://www.w3.org/2000/svg" xmlns:xlink="http://www.w3.org/1999/xlink">
	<desc>
			Created with Pixso.
	</desc>
	<defs>
		<clipPath id="clip43_1846">
			<rect id="Logo" rx="0.000000" width="71.000000" height="16.893492" transform="translate(0.500000 0.500000)" fill="white" fill-opacity="0"/>
		</clipPath>
	</defs>
	<rect id="Logo" rx="0.000000" width="71.000000" height="16.893492" transform="translate(0.500000 0.500000)" fill="#FFFFFF" fill-opacity="0"/>
	<g clip-path="url(#clip43_1846)">
		<path id="Vector" d="M21.66 12.5L26.76 12.5L26.76 10.97L23.47 10.97L23.47 5.19L21.66 5.19L21.66 12.5Z" fill="#D1D1D1" fill-opacity="1.000000" fill-rule="nonzero"/>
		<path id="Vector" d="M29.77 11.48C29.05 11.48 28.67 10.84 28.67 9.89C28.67 8.94 29.05 8.3 29.77 8.3C30.5 8.3 30.89 8.94 30.89 9.89C30.89 10.84 30.5 11.48 29.77 11.48ZM29.78 12.66C31.47 12.66 32.57 11.47 32.57 9.89C32.57 8.32 31.47 7.12 29.78 7.12C28.11 7.12 26.98 8.32 26.98 9.89C26.98 11.47 28.11 12.66 29.78 12.66Z" fill="#D1D1D1" fill-opacity="1.000000" fill-rule="nonzero"/>
		<path id="Vector" d="M35.49 14.31C36.27 14.31 36.96 14.14 37.42 13.73C37.84 13.35 38.11 12.78 38.11 11.99L38.11 7.27L36.52 7.27L36.52 7.83L36.5 7.83C36.19 7.39 35.72 7.11 35.02 7.11C33.73 7.11 32.83 8.2 32.83 9.73C32.83 11.33 33.92 12.21 35.1 12.21C35.73 12.21 36.13 11.96 36.43 11.61L36.48 11.61L36.48 12.13C36.48 12.77 36.18 13.13 35.47 13.13C34.92 13.13 34.65 12.9 34.55 12.62L32.94 12.62C33.1 13.72 34.05 14.31 35.49 14.31ZM35.48 10.98C34.86 10.98 34.45 10.47 34.45 9.68C34.45 8.88 34.86 8.37 35.48 8.37C36.18 8.37 36.55 8.96 36.55 9.67C36.55 10.41 36.21 10.98 35.48 10.98Z" fill="#D1D1D1" fill-opacity="1.000000" fill-rule="nonzero"/>
		<path id="Vector" d="M41.39 11.48C40.67 11.48 40.29 10.84 40.29 9.89C40.29 8.94 40.67 8.3 41.39 8.3C42.12 8.3 42.51 8.94 42.51 9.89C42.51 10.84 42.12 11.48 41.39 11.48ZM41.4 12.66C43.09 12.66 44.19 11.47 44.19 9.89C44.19 8.32 43.09 7.12 41.4 7.12C39.72 7.12 38.6 8.32 38.6 9.89C38.6 11.47 39.72 12.66 41.4 12.66Z" fill="#D1D1D1" fill-opacity="1.000000" fill-rule="nonzero"/>
		<path id="Vector" d="M44.68 12.5L46.35 12.5L46.35 7.27L44.68 7.27L44.68 12.5ZM44.68 6.54L46.35 6.54L46.35 5.19L44.68 5.19L44.68 6.54Z" fill="#D1D1D1" fill-opacity="1.000000" fill-rule="nonzero"/>
		<path id="Vector" d="M47.07 14.23L48.74 14.23L48.74 11.96L48.76 11.96C49.08 12.4 49.56 12.66 50.24 12.66C51.61 12.66 52.52 11.58 52.52 9.88C52.52 8.31 51.67 7.11 50.28 7.11C49.56 7.11 49.05 7.43 48.7 7.9L48.66 7.9L48.66 7.27L47.07 7.27L47.07 14.23ZM49.81 11.38C49.09 11.38 48.68 10.79 48.68 9.94C48.68 9.1 49.05 8.45 49.78 8.45C50.49 8.45 50.83 9.04 50.83 9.94C50.83 10.83 50.44 11.38 49.81 11.38Z" fill="#D1D1D1" fill-opacity="1.000000" fill-rule="nonzero"/>
		<path id="Vector" d="M55.23 12.66C56.6 12.66 57.62 12.07 57.62 10.93C57.62 9.59 56.53 9.35 55.61 9.2C54.95 9.08 54.35 9.02 54.35 8.66C54.35 8.33 54.67 8.17 55.08 8.17C55.54 8.17 55.86 8.32 55.92 8.79L57.45 8.79C57.37 7.76 56.57 7.11 55.09 7.11C53.85 7.11 52.83 7.68 52.83 8.79C52.83 10.02 53.8 10.26 54.71 10.41C55.41 10.54 56.04 10.59 56.04 11.06C56.04 11.4 55.72 11.58 55.22 11.58C54.67 11.58 54.32 11.33 54.26 10.8L52.69 10.8C52.74 11.96 53.7 12.66 55.23 12.66Z" fill="#D1D1D1" fill-opacity="1.000000" fill-rule="nonzero"/>
		<path id="Vector" d="M59.88 12.65C60.6 12.65 61.07 12.37 61.44 11.86L61.47 11.86L61.47 12.5L63.07 12.5L63.07 7.26L61.4 7.26L61.4 10.19C61.4 10.81 61.05 11.24 60.48 11.24C59.95 11.24 59.69 10.92 59.69 10.35L59.69 7.26L58.04 7.26L58.04 10.7C58.04 11.87 58.67 12.65 59.88 12.65Z" fill="#D1D1D1" fill-opacity="1.000000" fill-rule="nonzero"/>
		<path id="Vector" d="M63.79 12.5L65.46 12.5L65.46 9.57C65.46 8.94 65.77 8.5 66.29 8.5C66.79 8.5 67.02 8.83 67.02 9.39L67.02 12.5L68.69 12.5L68.69 9.57C68.69 8.94 68.99 8.5 69.52 8.5C70.02 8.5 70.26 8.83 70.26 9.39L70.26 12.5L71.92 12.5L71.92 9.1C71.92 7.92 71.33 7.11 70.14 7.11C69.47 7.11 68.91 7.4 68.5 8.03L68.48 8.03C68.21 7.47 67.69 7.11 67 7.11C66.25 7.11 65.75 7.47 65.42 8.01L65.39 8.01L65.39 7.27L63.79 7.27L63.79 12.5Z" fill="#D1D1D1" fill-opacity="1.000000" fill-rule="nonzero"/>
		<path id="Vector" d="M8.81 0.41C13.61 0.41 17.49 4.29 17.49 9.09C17.49 13.89 13.61 17.78 8.81 17.78C4.01 17.78 0.12 13.89 0.12 9.09C0.12 4.29 4.01 0.41 8.81 0.41ZM17.16 9.09C17.16 4.48 13.42 0.74 8.81 0.74C8.44 0.74 8.07 0.76 7.71 0.81C7.94 0.79 8.18 0.78 8.41 0.78C12.82 0.78 16.4 4.35 16.4 8.76C16.4 13.17 12.82 16.75 8.41 16.75C4.24 16.75 0.81 13.54 0.46 9.46C0.65 13.9 4.32 17.45 8.81 17.45C13.42 17.45 17.16 13.71 17.16 9.09ZM16.06 8.76C16.06 4.54 12.64 1.11 8.41 1.11C8.07 1.11 7.73 1.14 7.4 1.18C7.61 1.16 7.81 1.15 8.02 1.15C12.04 1.15 15.3 4.41 15.3 8.43C15.3 12.45 12.04 15.71 8.02 15.71C4.22 15.71 1.1 12.8 0.77 9.08C0.94 13.16 4.3 16.41 8.41 16.41C12.64 16.41 16.06 12.99 16.06 8.76ZM8.02 1.49C11.86 1.49 14.96 4.6 14.96 8.43C14.96 12.27 11.86 15.38 8.02 15.38C4.27 15.38 1.22 12.41 1.08 8.7C1.38 12.05 4.2 14.67 7.63 14.67C11.26 14.67 14.2 11.73 14.2 8.1C14.2 4.47 11.26 1.53 7.63 1.53C7.44 1.53 7.25 1.54 7.07 1.55C7.38 1.51 7.7 1.49 8.02 1.49ZM13.87 8.1C13.87 4.66 11.07 1.86 7.63 1.86C7.34 1.86 7.05 1.88 6.77 1.92C6.92 1.91 7.08 1.9 7.23 1.9C10.47 1.9 13.1 4.53 13.1 7.77C13.1 11.01 10.47 13.64 7.23 13.64C4.18 13.64 1.68 11.31 1.39 8.33C1.51 11.67 4.26 14.34 7.63 14.34C11.07 14.34 13.87 11.55 13.87 8.1ZM7.23 2.24C10.29 2.24 12.77 4.71 12.77 7.77C12.77 10.83 10.29 13.3 7.23 13.3C4.24 13.3 1.8 10.92 1.7 7.95C1.96 10.56 4.16 12.6 6.84 12.6C9.69 12.6 12 10.29 12 7.44C12 4.59 9.69 2.28 6.84 2.28C6.71 2.28 6.58 2.28 6.45 2.29C6.71 2.25 6.97 2.24 7.23 2.24ZM11.67 7.44C11.67 4.77 9.51 2.61 6.84 2.61C6.6 2.61 6.36 2.63 6.12 2.66C6.23 2.66 6.34 2.65 6.45 2.65C8.91 2.65 10.9 4.65 10.9 7.11C10.9 9.57 8.91 11.57 6.45 11.57C4.14 11.57 2.24 9.81 2.01 7.57C2.08 10.17 4.22 12.27 6.84 12.27C9.51 12.27 11.67 10.11 11.67 7.44ZM6.45 2.98C8.72 2.98 10.57 4.83 10.57 7.11C10.57 9.39 8.72 11.23 6.45 11.23C4.2 11.23 2.37 9.43 2.32 7.19C2.53 9.07 4.12 10.53 6.05 10.53C8.13 10.53 9.81 8.85 9.81 6.78C9.81 4.7 8.13 3.02 6.05 3.02C5.97 3.02 5.89 3.03 5.82 3.03C6.02 3 6.23 2.98 6.45 2.98ZM9.47 6.78C9.47 4.89 7.94 3.36 6.05 3.36C5.86 3.36 5.68 3.37 5.5 3.4C5.55 3.4 5.6 3.4 5.66 3.4C7.34 3.4 8.71 4.76 8.71 6.45C8.71 8.13 7.34 9.5 5.66 9.5C4.1 9.5 2.82 8.33 2.63 6.82C2.66 8.69 4.18 10.2 6.05 10.2C7.94 10.2 9.47 8.67 9.47 6.78ZM5.66 3.73C7.16 3.73 8.37 4.95 8.37 6.45C8.37 7.95 7.16 9.16 5.66 9.16C4.16 9.16 2.94 7.95 2.94 6.45C2.94 6.44 2.94 6.44 2.94 6.44C3.1 7.58 4.08 8.46 5.27 8.46C6.56 8.46 7.61 7.41 7.61 6.12C7.61 4.82 6.56 3.77 5.27 3.77C5.24 3.77 5.21 3.77 5.18 3.77C5.33 3.75 5.49 3.73 5.66 3.73ZM7.28 6.12C7.28 5.01 6.38 4.11 5.27 4.11C4.16 4.11 3.26 5.01 3.26 6.12C3.26 7.23 4.16 8.13 5.27 8.13C6.38 8.13 7.28 7.23 7.28 6.12Z" fill="#D1D1D1" fill-opacity="1.000000" fill-rule="evenodd"/>
	</g>
</svg>
