<svg width="20.000000" height="20.000000" viewBox="0 0 20 20" fill="none" xmlns="http://www.w3.org/2000/svg" xmlns:xlink="http://www.w3.org/1999/xlink">
	<desc>
			Created with Pixso.
	</desc>
	<defs>
		<clipPath id="clip52_1661">
			<rect id="Calling" rx="0.000000" width="19.000000" height="19.000000" transform="translate(0.500000 0.500000)" fill="white" fill-opacity="0"/>
		</clipPath>
	</defs>
	<rect id="Calling" rx="0.000000" width="19.000000" height="19.000000" transform="translate(0.500000 0.500000)" fill="#000000" fill-opacity="0"/>
	<g clip-path="url(#clip52_1661)">
		<path id="Combined-Shape" d="M5.54 1.66C6.47 1.68 7.14 2.37 7.98 3.26C8.18 3.47 8.41 3.71 8.66 3.96C9.87 5.18 9.53 6.17 9.25 6.97C8.95 7.84 8.68 8.59 10.26 10.16C11.83 11.73 12.58 11.47 13.44 11.16C14.24 10.88 15.23 10.53 16.45 11.75C16.7 12 16.93 12.22 17.15 12.43C18.03 13.27 18.73 13.93 18.75 14.87C18.75 15.66 18.27 16.48 17.08 17.67L16.55 17.31L17 17.75C16.73 18.02 16.03 18.74 14.65 18.75L14.63 18.75C12.55 18.75 9.85 17.09 6.58 13.83C3.31 10.56 1.65 7.84 1.66 5.76C1.67 4.38 2.39 3.68 2.66 3.41L2.68 3.39L2.74 3.33C3.94 2.14 4.76 1.65 5.54 1.66ZM5.53 2.91L5.52 2.91C5.15 2.91 4.58 3.29 3.79 4.06L3.63 4.21L3.63 4.21C3.63 4.21 3.61 4.23 3.59 4.25L3.54 4.31C3.33 4.5 2.92 4.91 2.91 5.76C2.91 6.96 3.69 9.17 7.47 12.95C11.22 16.7 13.43 17.5 14.63 17.5L14.65 17.5C15.5 17.49 15.91 17.08 16.1 16.87C16.16 16.81 16.21 16.77 16.24 16.74C17.07 15.9 17.5 15.28 17.5 14.88C17.49 14.48 16.98 14 16.29 13.33C16.06 13.12 15.82 12.89 15.57 12.63C14.9 11.98 14.58 12.09 13.86 12.34C12.86 12.69 11.5 13.17 9.37 11.04C7.25 8.91 7.72 7.55 8.07 6.55C8.32 5.83 8.44 5.51 7.78 4.84C7.52 4.59 7.28 4.34 7.07 4.12C6.41 3.42 5.93 2.92 5.53 2.91ZM12.7 4.63C14.43 4.96 15.77 6.3 16.11 8.04C16.18 8.38 15.96 8.71 15.62 8.77C15.58 8.78 15.54 8.78 15.5 8.78C15.2 8.78 14.94 8.58 14.88 8.28C14.64 7.04 13.69 6.09 12.46 5.85C12.12 5.79 11.9 5.46 11.97 5.12C12.03 4.78 12.37 4.56 12.7 4.63ZM12.65 1.67C16.05 2.05 18.69 4.68 19.07 8.08C19.11 8.42 18.86 8.73 18.52 8.77C18.49 8.77 18.47 8.77 18.45 8.77C18.13 8.77 17.86 8.54 17.83 8.22C17.51 5.41 15.33 3.22 12.51 2.91C12.17 2.87 11.92 2.56 11.96 2.22C12 1.88 12.3 1.62 12.65 1.67Z" fill="#B0B0B2" fill-opacity="1.000000" fill-rule="evenodd"/>
	</g>
</svg>
