<svg width="20.000000" height="20.000000" viewBox="0 0 20 20" fill="none" xmlns="http://www.w3.org/2000/svg" xmlns:xlink="http://www.w3.org/1999/xlink">
	<desc>
			Created with Pixso.
	</desc>
	<defs>
		<clipPath id="clip52_1632">
			<rect id="Location" rx="0.000000" width="19.000000" height="19.000000" transform="translate(0.500000 0.500000)" fill="white" fill-opacity="0"/>
		</clipPath>
	</defs>
	<rect id="Location" rx="0.000000" width="19.000000" height="19.000000" transform="translate(0.500000 0.500000)" fill="#000000" fill-opacity="0"/>
	<g clip-path="url(#clip52_1632)">
		<path id="Combined-Shape" d="M10.2 1.66C13.99 1.66 17.08 4.77 17.08 8.59C17.08 13.29 11.7 17.91 10.2 17.91C8.71 17.91 3.33 13.29 3.33 8.59C3.33 4.77 6.41 1.66 10.2 1.66ZM10.2 2.91C7.1 2.91 4.58 5.46 4.58 8.59C4.58 12.57 9.26 16.45 10.2 16.66C11.14 16.45 15.83 12.57 15.83 8.59C15.83 5.46 13.3 2.91 10.2 2.91ZM10.2 5.83C11.7 5.83 12.91 7.04 12.91 8.54C12.91 10.03 11.7 11.25 10.2 11.25C8.71 11.25 7.5 10.03 7.5 8.54C7.5 7.04 8.71 5.83 10.2 5.83ZM10.2 7.08C9.4 7.08 8.75 7.73 8.75 8.54C8.75 9.34 9.4 10 10.2 10C11.01 10 11.66 9.34 11.66 8.54C11.66 7.73 11.01 7.08 10.2 7.08Z" fill="#B0B0B2" fill-opacity="1.000000" fill-rule="evenodd"/>
	</g>
</svg>
